<svg id="Layer_1" xmlns="http://www.w3.org/2000/svg" viewBox="0 0 234 196.5"><path fill="#B6E3EB" d="M29.7 131.9h-6.3V126h6.3v5.9zm0-11.7h-6.3v-5.9h6.3v5.9zm0-11.8h-6.3v-5.9h6.3v5.9zm0-11.8h-6.3v-5.9h6.3v5.9zM81 161.2v-6.3h5.9v6.3H81zm11.7 0v-6.3h5.9v6.3h-5.9zm11.8 0v-6.3h5.9v6.3h-5.9zm11.8 0v-6.3h5.9v6.3h-5.9zM151.7 130.9h-6.3V125h6.3v5.9zm0-11.7h-6.3v-5.9h6.3v5.9zm0-11.8h-6.3v-5.9h6.3v5.9zm0-11.8h-6.3v-5.9h6.3v5.9zM55.3 53.4v-6.3h5.9v6.3h-5.9zm11.8 0v-6.3H73v6.3h-5.9zm11.8 0v-6.3h5.9v6.3h-5.9zm11.7 0v-6.3h5.9v6.3h-5.9z"/><path fill-rule="evenodd" clip-rule="evenodd" fill="#ECECEC" d="M106.1 185.7v-55.5c0-6-4.8-10.8-10.8-10.8H10.8c-6 0-10.8 4.8-10.8 10.8v55.5c0 6 4.8 10.8 10.8 10.8h84.5c6 0 10.8-4.9 10.8-10.8z" id="Shape_223_4_"/><path fill-rule="evenodd" clip-rule="evenodd" fill="#01838F" d="M97.5 187.3v-58.7c0-.9-.7-1.6-1.6-1.6H12.6c-.9 0-1.6.7-1.6 1.6v58.7c0 .9.7 1.6 1.6 1.6h83.2c.9 0 1.7-.7 1.7-1.6z" id="Shape_224_2_"/><path fill-rule="evenodd" clip-rule="evenodd" fill="#F8981D" d="M7.5 160.4v-4.9c0-.8-.7-1.5-1.5-1.5s-1.5.7-1.5 1.5v4.9c0 .8.7 1.5 1.5 1.5.9 0 1.5-.7 1.5-1.5z" id="Shape_225_2_"/><circle fill-rule="evenodd" clip-rule="evenodd" fill="#ADADAD" cx="101.9" cy="158" r=".9" id="Shape_226_2_"/><g><path fill-rule="evenodd" clip-rule="evenodd" fill="#01838F" d="M46.1 0H7.5C3.4 0 0 3.4 0 7.6V97c0 4.2 3.4 7.5 7.5 7.5H46c4.2 0 7.5-3.4 7.5-7.5V7.6c.1-4.2-3.2-7.6-7.4-7.6z" id="Shape_15_2_"/><path fill-rule="evenodd" clip-rule="evenodd" fill="#ECECEC" d="M4.4 17.8h45.1V86H4.4z" id="Shape_21_3_"/><path fill-rule="evenodd" clip-rule="evenodd" fill="#ADADAD" d="M30.6 8.3h-7.9c-.5 0-1 .4-1 1 0 .5.4 1 1 1h7.9c.5 0 1-.4 1-1 0-.5-.5-1-1-1z" id="Shape_18_3_"/><circle fill-rule="evenodd" clip-rule="evenodd" fill="#F8981D" cx="26.5" cy="95.1" r="4.3" id="Shape_22_3_"/></g><g><path fill-rule="evenodd" clip-rule="evenodd" fill="#01838F" d="M197 14.3h-96.6c-1.6 0-2.8 1.3-2.8 2.8v64.2h102.3V17.2c-.1-1.6-1.4-2.9-2.9-2.9z" id="Shape_30"/><path fill-rule="evenodd" clip-rule="evenodd" fill="#ECECEC" d="M195.1 18.9H102c-.2 0-.4.2-.4.4v57.2c0 .2.2.4.4.4h93.1c.2 0 .4-.2.4-.4V19.3c0-.2-.2-.4-.4-.4z" id="Shape_31"/><path fill-rule="evenodd" clip-rule="evenodd" fill="#D0D1D1" d="M90.5 81.3v3.5l3.2 2.1h109.7l3.2-2.1v-3.5z" id="Shape_32"/><path fill-rule="evenodd" clip-rule="evenodd" fill="#C2C1C1" d="M90.5 84.7l3.2 2.1h109.9l3-2.1z" id="Shape_157"/><path fill-rule="evenodd" clip-rule="evenodd" fill="#D25E27" d="M137 81.3l2.1 2h19.1l1.9-2z" id="Shape_33"/></g><g><path fill="#ECECEC" d="M216 155.5c-2 0-3.9.3-5.6.9 0-.6.1-1.3.1-1.9 0-14.5-11.7-26.2-26.2-26.2-13 0-23.9 9.5-25.9 22-.7-.1-1.3-.1-2-.1-11.4 0-20.7 9.2-20.7 20.6 0 11.4 9.2 20.6 20.7 20.6h59.9c9.8-.1 17.8-8.1 17.8-18-.1-9.8-8.1-17.9-18.1-17.9"/><path fill="#F8981D" d="M166.2 145.3c-.4 0-.7 0-1.1.1-1.1-6.6-6.8-11.7-13.7-11.7-7.7 0-13.9 6.2-13.9 13.9v1c-.9-.3-1.9-.5-3-.5-5.3 0-9.5 4.3-9.5 9.5s4.2 9.5 9.4 9.5h31.7c6 0 11-4.9 11-11 .1-5.8-4.8-10.8-10.9-10.8"/></g></svg>