<svg id="Layer_1" xmlns="http://www.w3.org/2000/svg" viewBox="-54 40.2 614.2 787.4"><path fill="#ECECEC" d="M551.8 244.3L386.5 105.6c-4.9-4.1-11.8-4-15.4.2l-76.7 91.4c-3.5 4.2-2.5 11 2.5 15.1L462.3 351c4.9 4.1 11.8 4 15.4-.2l76.7-91.4c3.4-4.1 2.3-10.9-2.6-15.1z" id="Shape_213_6_"/><path fill="#00838F" d="M436.9 170.1l-54.7-45.9c-.5-.4-1.6-.1-2.3.7l-44.6 53.2c-.7.9-.9 1.9-.4 2.4l54.7 45.9c.5.4 1.6.2 2.3-.7l44.6-53.2c.9-.9.9-1.9.4-2.4z" id="Shape_58_5_" opacity=".161"/><path fill="#00838F" d="M488.3 308.9l-74.7-62.7c-2-1.7-4.8-1.7-6.3.1s-1.1 4.5 1 6.2l74.7 62.7c2 1.7 4.8 1.7 6.3-.1 1.4-1.7.9-4.4-1-6.2m-36.9-3.9l-51.1-42.9c-2-1.7-4.8-1.7-6.3.1s-1.1 4.5 1 6.2l51.1 42.9c2 1.7 4.8 1.7 6.3-.1 1.5-1.7 1.1-4.5-1-6.2"/><path fill="#CDCDCD" d="M534.6 253.8l-74.7-62.7c-2-1.7-4.8-1.7-6.3.1s-1.1 4.5 1 6.2l74.7 62.7c2 1.7 4.8 1.7 6.3-.1s1-4.6-1-6.2m-12.1 14.5l-74.7-62.7c-2-1.7-4.8-1.7-6.3.1s-1.1 4.5 1 6.2l74.7 62.7c2 1.7 4.8 1.7 6.3-.1 1.4-1.7 1-4.6-1-6.2"/><path fill="#CDCDCD" d="M524.8 124.9H309c-6.4 0-11.6 4.5-11.6 10v119.3c0 5.5 5.2 10 11.6 10h215.9c6.4 0 11.6-4.5 11.6-10V134.9c0-5.5-5.2-10-11.7-10z" id="Shape_213_8_"/><path fill="#ECECEC" d="M522.1 122.1H306.3c-6.4 0-11.6 4.5-11.6 10v119.3c0 5.5 5.2 10 11.6 10h215.9c6.4 0 11.6-4.5 11.6-10V132.1c0-5.5-5.2-10-11.7-10z" id="Shape_213"/><path d="M386.4 139h-71.5c-.7 0-1.2.9-1.2 2v69.3c0 1.1.6 2 1.2 2h71.5c.7 0 1.3-.9 1.3-2V141c0-1-.6-2-1.3-2z" id="Shape_58_1_" opacity=".161"/><path fill="#CDCDCD" d="M515 212.4h-97.4c-2.6 0-4.8 1.8-4.8 4.1s2.1 4.1 4.8 4.1h97.5c2.6 0 4.8-1.8 4.8-4.1-.2-2.3-2.3-4.1-4.9-4.1M484.3 233h-66.7c-2.6 0-4.8 1.8-4.8 4.1s2.1 4.1 4.8 4.1h66.7c2.6 0 4.8-1.8 4.8-4.1-.1-2.3-2.2-4.1-4.8-4.1"/><path fill="#FF9800" d="M515 140.3h-97.4c-2.6 0-4.8 1.8-4.8 4.1s2.1 4.1 4.8 4.1h97.5c2.6 0 4.8-1.8 4.8-4.1-.2-2.2-2.3-4.1-4.9-4.1m0 18.9h-97.4c-2.6 0-4.8 1.8-4.8 4.1s2.1 4.1 4.8 4.1h97.5c2.6 0 4.8-1.8 4.8-4.1-.1-2.2-2.3-4.1-4.9-4.1"/><path fill="#CDCDCD" d="M502.2 143l-68.5-97.7c-3.2-4.5-10-5.2-15.3-1.5L241.6 167.6c-5.3 3.7-7 10.4-3.8 14.9l68.5 97.8c3.2 4.6 10 5.2 15.3 1.5L498.4 158c5.3-3.7 7-10.4 3.8-15z" id="Shape_213_4_"/><path fill="#ECECEC" d="M499 141.9l-68.5-97.8c-3.2-4.5-10-5.2-15.3-1.5L238.4 166.4c-5.3 3.7-7 10.4-3.8 14.9l68.5 97.8c3.2 4.6 10 5.2 15.3 1.5l176.8-123.8c5.3-3.7 6.9-10.4 3.8-14.9z" id="Shape_213_2_"/><g id="Shape_58_3_" opacity=".161"><path fill="#00838F" d="M343.5 169.8L318 133.4c-.4-.6-1.2-.7-1.8-.3L255.1 176c-.6.4-.8 1.2-.4 1.8l25.4 36.3c.4.6 1.2.7 1.8.3l61.1-42.8c.7-.4.8-1.3.5-1.8z"/></g><path fill="#FF9800" d="M365.4 195.4l-68.6 48.1c-1.8 1.3-2.3 3.9-1 5.7 1.3 1.8 3.9 2.3 5.7 1.1l68.6-48.1c1.8-1.3 2.3-3.9 1-5.7-1.3-2-3.9-2.4-5.7-1.1m-9.9 32l-47 32.9c-1.8 1.3-2.3 3.9-1 5.7s3.9 2.3 5.7 1.1l47-32.9c1.8-1.3 2.3-3.9 1-5.7s-3.8-2.4-5.7-1.1"/><path fill="#CDCDCD" d="M415.6 68.3L347 116.4c-1.8 1.3-2.3 3.9-1 5.7s3.9 2.3 5.7 1.1l68.6-48.1c1.8-1.3 2.3-3.9 1-5.7s-3.8-2.3-5.7-1.1m-9.8 32.1l-47 32.9c-1.8 1.3-2.3 3.9-1 5.7 1.3 1.8 3.9 2.3 5.7 1.1l47-32.9c1.8-1.3 2.3-3.9 1-5.7-1.3-1.9-3.9-2.4-5.7-1.1"/><g><path fill="#01838F" d="M290.6 334.1h-21.4l-1-3.3c0-3.3-2.6-6.3-6.3-6.3h-17.5c-3.3 0-6.3 2.6-6.3 6.3l-.4 3.3h-46.6l-9.4-30.5c0-3.3-2.6-6.3-6.3-6.3H72.9c-3.3 0-6.3 2.6-6.3 6.3l-8.7 30.5H18.4l-.7-3.3c0-3.3-2.6-6.3-6.3-6.3h-28.2c-3.3 0-6.3 2.6-6.3 6.3l-.7 3.3H-44c-5.4 0-10 4.3-10 10v191.5c0 5.4 4.3 10 10 10h334.8c5.4 0 10-4.3 10-10V343.8c-.2-5.4-4.6-9.7-10.2-9.7z" id="Shape_106"/><path fill="#CECECD" d="M290.6 334.1H-43.9c-5.4 0-10 4.3-10 10v11.4h354.5v-11.4c0-5.7-4.4-10-10-10z" id="Shape_106_copy"/><path fill="#F8981D" d="M-53.9 524.9v11.4c0 5.4 4.3 9.7 10 9.7h334.8c5.4 0 10-4.3 10-9.7v-11.4H-53.9z" id="Shape_106_copy_2"/><path fill="#ECECEC" d="M123.2 366.2c-39.9 0-72.3 32.5-72.3 72.3s32.1 72.3 72.3 72.3c39.9 0 72.3-32.1 72.3-72.3s-32.2-72.3-72.3-72.3zm0 127.2c-30.5 0-54.9-24.7-54.9-54.9 0-30.5 24.7-54.9 54.9-54.9 30.5 0 54.9 24.7 54.9 54.9.3 30.2-24.5 54.9-54.9 54.9z" id="Shape_62_copy_4"/><path fill="#ECECEC" d="M123.9 399.1c-21.1 0-38.2 17.1-38.2 38.2s17.1 38.2 38.2 38.2 38.2-17.1 38.2-38.2c-.1-21.2-17.2-38.2-38.2-38.2z" id="Shape_111" opacity=".361"/><path fill="#ECECEC" d="M164.4 309.6H83.7c-3.3 0-6.3 2.6-6.3 6.3v1.3c0 3.3 2.6 6.3 6.3 6.3h81c3.3 0 6.3-2.6 6.3-6.3V316c-.3-3.6-3.3-6.4-6.6-6.4z" id="Shape_110"/></g><g><path fill="#ECECEC" d="M500.7 659c-6.5 0-12.8 1.1-18.7 3 .3-2.1.3-4.1.3-6.5 0-48-38.8-87-86.8-87-43.2 0-79.1 31.7-85.9 72.9-2.1-.3-4.4-.3-6.5-.3-37.9 0-68.4 30.8-68.4 68.4 0 37.9 30.5 68.4 68.4 68.4h198.1c32.6-.3 59-26.9 59-59.5S533.5 659 500.7 659"/><path fill="#F8981D" d="M454.1 745.9c-.6-1.1-2.1-2.1-3.3-2.1h-28.4v-72.9c0-3.3-2.6-5.9-5.9-5.9h-38.2c-3.3 0-5.9 2.6-5.9 5.9v72.9H344c-1.5 0-2.6.9-3.3 2.1-.3.6-.3 1.1-.3 1.8 0 .9.3 1.5.6 2.1l53.6 76.4c.6.9 1.8 1.5 3 1.5s2.4-.6 3-1.5l53.3-76.4c.9-1.3.9-2.8.2-3.9"/></g><g><path fill="#B6E3EB" d="M124.5 183.2v-14.5H138v14.5h-13.5zm27.2 0v-14.5h13.6v14.5h-13.6zm27.1 0v-14.5h13.6v14.5h-13.6zm26.9 0v-14.5h13.6v14.5h-13.6zM138.7 288.5h-14.5V275h14.5v13.5zm0-26.9h-14.5V248h14.5v13.6zm0-27.2h-14.5v-13.6h14.5v13.6zm0-27.1h-14.5v-13.6h14.5v13.6z"/></g><g><path fill="#B6E3EB" d="M308.3 451.8v-14.5h13.6v14.5h-13.6zm27.2 0v-14.5h13.6v14.5h-13.6zm27.1 0v-14.5h13.6v14.5h-13.6zm27 0v-14.5h13.6v14.5h-13.6z"/></g><g><path fill="#B6E3EB" d="M404.2 557.1h-14.5v-13.6h14.5v13.6zm0-26.9h-14.5v-13.6h14.5v13.6zm0-27.2h-14.5v-13.6h14.5V503zm0-27.1h-14.5v-13.6h14.5v13.6z"/></g></svg>