<svg id="Layer_1" xmlns="http://www.w3.org/2000/svg" viewBox="0 55.5 612 680.7"><path fill="#B6E3EB" d="M462.8 335.8h-16.5v-15.4h16.5v15.4zm0-30.6h-16.5v-15.4h16.5v15.4zm0-30.9h-16.5v-15.4h16.5v15.4zm0-30.9h-16.5V228h16.5v15.4zM353.4 214.1v-16.5h15.4v16.5h-15.4zm30.9 0v-16.5h15.4v16.5h-15.4zm30.8 0v-16.5h15.4v16.5h-15.4zm30.6 0v-16.5h15.4v16.5h-15.4zM231.6 214.1v-16.5H247v16.5h-15.4zm30.9 0v-16.5h15.4v16.5h-15.4zm30.8 0v-16.5h15.4v16.5h-15.4zm30.6 0v-16.5h15.4v16.5h-15.4zM111 214.1v-16.5h15.4v16.5H111zm30.9 0v-16.5h15.4v16.5h-15.4zm30.8 0v-16.5h15.4v16.5h-15.4zm30.6 0v-16.5h15.4v16.5h-15.4zM462.8 458.4h-16.5V443h16.5v15.4zm0-30.6h-16.5v-15.4h16.5v15.4zm0-30.8h-16.5v-15.4h16.5V397zm0-30.9h-16.5v-15.4h16.5v15.4z"/><g><path fill="#F8981D" d="M46.9 152H17.5C7.9 152 0 159.9 0 169.4v58.4c0 9.5 7.9 17.5 17.5 17.5h29.4c9.5 0 17.5-7.9 17.5-17.5v-58c-.1-9.9-7.6-17.8-17.5-17.8z" id="Rounded_Rectangle_34_3_"/><path fill="#01838F" d="M69.9 151.6h-35v94.9h35l148.9 86.9V64.2z" id="Shape_450"/><path fill="#ECECEC" d="M385.6 124.2c-10.7-23.4-26.2-44.9-47.3-63.9-7.1-6.4-18.7-6.4-25.4 0-7.1 6.4-6.8 16.7 0 23.4 17.5 15.5 30.6 33.8 39.3 52.8 8.7 19.5 13.1 40.5 13.1 61.2 0 40.9-17.1 82.2-51.6 114-7.1 6.4-6.8 16.7 0 23.4 3.6 3.2 7.9 4.8 12.7 4.8 4.8 0 9.1-1.6 12.7-4.8 41.3-38.1 62-87.8 62-137 .8-25.5-4.7-50.5-15.5-73.9zm-73.8 33.3c-5.2-11.1-12.7-21.8-23-31-7.1-6.4-18.7-6.4-25.4 0-7.1 6.4-6.8 17.1 0 23.4 6.8 6 11.5 12.7 14.7 19.9 3.6 7.5 5.2 15.5 5.2 23.4 0 15.5-6.4 30.6-19.1 42.5-7.1 6.4-6.8 16.7 0 23.4 3.6 3.2 7.9 4.8 12.7 4.8s9.1-1.6 12.7-4.8c19.9-18.3 29.8-42.1 29.8-65.5.3-12.3-2.5-24.6-7.6-36.1z" id="Shape_451"/></g><g><path fill="#01838F" d="M463.1 476.4h-257c-8.3 0-15.1 6.8-15.1 14.7v185.5c0 8.3 6.8 14.7 15.1 14.7h34.6c10.7 19.1 25.4 44.9 25.4 44.9s15.1-26.2 25.4-44.9h170.8c8.3 0 15.1-6.8 15.1-14.7V491.1c.4-8.3-6.4-14.7-14.3-14.7"/><path fill="#ECECEC" d="M594.9 404.5H299.8c-9.5 0-17.1 7.5-17.1 17.1v212.9c0 9.5 7.5 17.1 17.1 17.1h196.6c11.9 21.4 29.4 51.6 29.4 51.6s17.1-29.8 29.4-51.6h39.7c9.5 0 17.1-7.5 17.1-17.1V421.6c0-9.5-7.5-17.1-17.1-17.1"/><path fill="#F8981D" d="M346.7 488.3h202.1c5.6 0 9.9-4.4 9.9-9.9s-4.4-9.9-9.9-9.9H346.7c-5.6 0-9.9 4.4-9.9 9.9s4.7 9.9 9.9 9.9m202.2 29.4H346.7c-5.6 0-9.9 4.4-9.9 9.9 0 5.6 4.4 9.9 9.9 9.9h202.1c5.6 0 9.9-4.4 9.9-9.9.1-5.5-4.3-9.9-9.8-9.9m-64 48.9H346.7c-5.6 0-9.9 4.4-9.9 9.9s4.4 9.9 9.9 9.9h138.2c5.6 0 9.9-4.4 9.9-9.9 0-5.6-4.3-9.9-9.9-9.9"/></g></svg>