<svg id="Layer_1" xmlns="http://www.w3.org/2000/svg" viewBox="0 0 421.9 60.5"><path fill="#FFF" d="M339.2.2c1-.3 2.1-.3 3 .1 1.2.7 1.2 2.4.9 3.6-.4 1.3-1.9 1.7-3.1 1.4-1.2-.1-1.9-1.3-1.9-2.4-.1-1 .1-2.3 1.1-2.7zM271 4.2c-.2-1.4 1.2-2.6 2.5-2.5 1.2-.1 2.2 1.1 2.2 2.2v34.3c.1 5.1-.2 10.7-3.5 14.9-2.3 3-5.7 5-9.3 5.9-3.1.9-6.3.9-9.4.8-4.5-.3-9-2-12.2-5.2-3.8-3.6-5.3-9-5.6-14-.3-5.3 0-10.7 2.2-15.6 1.9-4.1 5.5-7.4 9.8-8.8 3.9-1.4 8.2-1.6 12.3-1 4.2.6 8.1 2.8 10.9 6.1.1-5.8.1-11.4.1-17.1zm-18.3 14.9c-2.3.3-4.6 1.1-6.6 2.5-2.7 2-4.3 5.1-5 8.4-.9 3.9-.9 8-.5 12 .5 4 1.8 8.3 5.1 10.8 3.5 2.8 8.2 3.2 12.4 2.9 3.1-.3 6.3-1.1 8.6-3.3 2.9-2.6 4.2-6.5 4.1-10.3 0-4.5.1-9.1 0-13.6-1.3-3.1-3.6-5.8-6.5-7.5-3.4-2.1-7.6-2.4-11.6-1.9zM288 3.9c-.1-1.2 1-2.3 2.3-2.2 1.3-.2 2.4 1 2.3 2.2v17.5c2.9-3.3 6.9-5.7 11.3-6.3 5-.7 10.4-.2 14.8 2.3 3.5 1.9 6.1 5 7.5 8.7 2.1 5.7 2.3 11.9 1.3 17.8-.9 4.3-2.7 8.5-6.1 11.4-3.7 3.3-8.8 4.5-13.6 4.4-3.7.1-7.5-.5-10.9-2.2-3.6-1.8-6.4-5-7.8-8.8-.9-2.4-1.2-5-1.2-7.6.1-12.3.1-24.7.1-37.2zm16.1 15.3c-4.7.8-8.6 4.2-10.8 8.3-.3.5-.7 1-.7 1.6v12.4c.1 2.5.4 5 1.4 7.2 1 2.1 2.6 3.8 4.6 5 3.2 1.8 7.1 2.1 10.7 1.9 3.5-.3 7.1-1.3 9.6-3.9 2.7-2.8 3.8-6.8 4.1-10.6.4-4.3.3-8.8-1.1-13-.9-2.8-2.6-5.4-5.1-7-3.7-2.3-8.4-2.6-12.7-1.9zM417.2 3.9c-.1-1.2 1.1-2.4 2.3-2.2 1.2-.1 2.4 1 2.3 2.2v35.4c.1 3 0 6.1-1 9-1.2 4-4.2 7.4-8 9.3-3.4 1.6-7.2 2.3-10.9 2.2-3.4.1-6.8-.6-9.9-2-3.8-1.9-6.9-5.2-8.4-9.1-1.7-4.5-2-9.5-1.7-14.2.3-4.5 1.3-9.2 4.3-12.8 3-3.7 7.6-6 12.3-6.5 4.7-.5 9.8-.2 14 2.3 1.8 1 3.3 2.5 4.7 3.9.1-5.9 0-11.7 0-17.5zm-18.9 15.3c-2.9.5-5.7 1.8-7.7 4-2.8 3.2-3.6 7.6-3.9 11.7-.2 4.8.1 9.9 2.3 14.2 1.7 3.3 5.1 5.4 8.7 6.1 3.7.7 7.6.6 11.2-.5 2.6-.8 4.9-2.7 6.3-5 1.5-2.3 1.9-5.1 2-7.7V29.1c0-.6-.2-1.1-.5-1.6-1-1.9-2.3-3.7-4-5.1-1.2-1-2.6-1.8-4.1-2.5-3.2-1.2-6.9-1.2-10.3-.7zM128.2 16.7c4-1.8 8.5-2.1 12.8-1.7 4.4.4 8.8 2.2 11.6 5.6.5.6 1.2 1.4 1 2.3-.3 1.4-2.1 2.3-3.3 1.4-1-.9-1.7-2-2.8-2.7-2.7-2.1-6.2-2.7-9.6-2.6-4.2-.1-8.7 1-11.5 4.3-3.2 3.7-3.8 8.8-3.9 13.4 0 4.8.4 9.9 3.2 13.9 2.3 3.3 6.3 4.9 10.1 5.2 3.1.1 6.3.1 9.3-1 2-.8 3.9-1.9 5.6-3.2 1-.9 2.9-.3 3.2 1 .3.8-.1 1.7-.8 2.2-3.7 2.9-8.2 4.8-13 5-2.6 0-5.3.2-7.9-.5-4.5-.9-8.6-3.6-11.1-7.5-2.6-4-3.3-8.8-3.5-13.4v-2.2c.1-3.6.6-7.2 2-10.5 1.5-4 4.7-7.2 8.6-9zM171.7 16.4c3.2-1.4 6.8-1.7 10.3-1.5 3.5.2 7.1 1 9.9 3 3.5 2.6 5.6 7 5.6 11.3v27.7c0 .7-.1 1.5-.7 1.9-1.1.9-3.1.5-3.5-1-.2-1.2-.1-2.4-.1-3.6-3.2 3.2-7.6 4.8-12 5.3-4 .4-8 .1-11.8-1.1-3.4-1.1-6.5-3.5-7.9-6.9-1.3-3.1-1.3-6.7-.1-9.8 1.1-2.8 3.5-4.8 6.1-6.2 3.3-1.8 7.2-2.4 11-2.4 4.9-.1 9.9 0 14.8 0 0-2.5.2-5.2-.7-7.6-1-2.7-3.3-4.7-5.9-5.6-2.8-1-5.8-1.1-8.7-1-1.7.1-3.4.4-5 1.2-2.3 1-3.9 2.9-5.4 4.8-.7 1.3-2.7 1.5-3.6.4-.7-.7-.7-1.8-.1-2.6 1.8-2.9 4.6-5.2 7.8-6.3zm2.4 21.1c-2.2.5-4.3 1.3-6 2.7-2.9 2.3-3.5 6.7-2.1 10 1.2 2.5 3.7 4.2 6.3 4.9 4.4 1.1 9.2.9 13.5-.7 3.6-1.4 6.7-4.6 7.3-8.6.4-2.9.1-5.8.2-8.8h-9.9c-3.1.1-6.2-.1-9.3.5zM219.6 17.3c3.1-1.7 6.7-2.4 10.3-2.4 1.3-.1 2.5 1.4 1.9 2.7-.3.9-1.2 1.4-2.2 1.4-2.7.1-5.5.5-7.9 1.8-3.4 2-5.9 5.4-6.8 9.1-1 3.4-.7 7-.8 10.5v16.8c.1 1.5-1.6 2.6-2.9 2.1-.9-.3-1.7-1.2-1.6-2.2V17.6c-.1-1 .7-2 1.6-2.2 1.2-.4 2.8.4 2.9 1.7.1 1.7 0 3.5.1 5.2 1.5-1.9 3.2-3.8 5.4-5zM363.8 18.7c3.5-2.8 8-3.9 12.4-3.7 1.2 0 2.4 1.4 1.8 2.6-.4.9-1.4 1.5-2.3 1.4-3.3.1-6.8.8-9.4 3-3.1 2.3-4.9 5.9-5.5 9.7-.5 2.6-.3 5.3-.4 8v17.9c-.1 1.8-2.5 2.6-3.8 1.4-.6-.5-.9-1.2-.8-2V17.7c-.2-1.5 1.5-2.6 2.8-2.3.9.2 1.7 1 1.8 2v5c1-1.3 2.1-2.7 3.4-3.7zM339.5 15.6c1.4-.8 3.4.2 3.4 1.8v39.8c0 1.2-1 2.2-2.2 2.2-1.2.1-2.4-1-2.4-2.2V17.6c0-.8.5-1.6 1.2-2z"/><g><path fill="#FFF" d="M36.8 4.6C38.3 3.3 40.4 3 42.4 3h43.9c1.9 0 3.9-.2 5.8.5 2.7.8 4.3 3.7 4.2 6.5v11.4c1.8 1.2 3.6 2.5 5.5 3.7.5.3 1 .8 1 1.4 0 .7-.5 1.2-1 1.6-1.8 1.5-3.7 3-5.5 4.6v11.2c0 1.8-.5 3.7-1.9 4.9-1.3 1.4-3.3 1.9-5.2 1.8H76V59c-.1 1.4-2 2.1-3 1.1-.8-.6-.6-1.8-.6-2.7 0-2.3.1-4.5-.1-6.8H61.2v8.2c0 1-1 1.9-2 1.8-.8-.1-1.5-.8-1.6-1.6-.1-2.8.1-5.6-.1-8.4h-16c-1.9 0-4-.6-5.3-2.2-1.2-1.5-1.4-3.6-1.4-5.5v-7.8l-.1-.2c-2.4-1.3-4.7-2.9-7-4.5-1.7-1.2-3.2-2.5-4.6-4 3.7-2.5 7.6-4.9 11.7-6.7v-10c0-1.9.5-3.8 2-5.1zm2.6 2.8c-.8.7-1 1.7-1 2.7v8c1.5-.4 3-1 4.5-1.3 4.6-1.1 9.7-1.4 14.2.4 2.4 1 4.8 2.4 6.5 4.5 1.9 2.3 2.7 5.5 2 8.4-.7 2.7-2.7 4.7-4.9 6.3-3 2-6.6 2.8-10.2 2.7-4.2 0-8.2-1.1-12.1-2.5v6.8c0 .9.1 1.8.7 2.5.6.8 1.6 1.1 2.6 1.1h46c1.2 0 2.5.1 3.6-.5 1-.6 1.3-1.8 1.3-2.9V10.2c0-1-.2-2.1-.9-2.8-.9-.7-2.1-.7-3.3-.8H42.6c-1.1.1-2.4.1-3.2.8zm-1.1 14.7c-3.2 1.3-6.4 2.8-9.3 4.8 2.1 1.6 4.4 3 6.6 4.4 3.9 2.1 8.2 3.6 12.7 4.1 3.5.3 7.2 0 10.2-1.9 1.7-1.1 3.3-2.7 3.6-4.8.3-1.9-.5-3.8-1.8-5.1-2.2-2.3-5.3-3.5-8.3-3.8-4.7-.6-9.4.5-13.7 2.3z"/><path fill="#FFF" d="M78.4 13.3c1.3-.4 2.8-.1 3.6 1 1.1 1.3.9 3.5-.5 4.5-1.3 1.2-3.6.9-4.6-.6-1.2-1.5-.5-4.3 1.5-4.9z"/></g></svg>