<?xml version="1.0" encoding="utf-8"?>
<!-- Generator: Adobe Illustrator 18.1.1, SVG Export Plug-In . SVG Version: 6.00 Build 0)  -->
<svg version="1.1" id="Layer_1" xmlns="http://www.w3.org/2000/svg" xmlns:xlink="http://www.w3.org/1999/xlink" x="0px" y="0px"
	 viewBox="0 0 612 792" enable-background="new 0 0 612 792" xml:space="preserve">
<g>
	<path fill="#B3E5FC" d="M77.7,484H61.2v-15.4h16.5V484z M77.7,453.4H61.2V438h16.5V453.4z M77.7,422.5H61.2v-15.4h16.5V422.5z
		 M77.7,391.7H61.2v-15.4h16.5V391.7z"/>
</g>
<g>
	<path fill="#B3E5FC" d="M211.8,560.6v-16.5h15.4v16.5H211.8z M242.4,560.6v-16.5h15.4v16.5H242.4z M273.3,560.6v-16.5h15.4v16.5
		H273.3z M304.2,560.6v-16.5h15.4v16.5H304.2z"/>
</g>
<g>
	<path fill="#B3E5FC" d="M396.8,481.4h-16.5V466h16.5V481.4z M396.8,450.8h-16.5v-15.4h16.5V450.8z M396.8,419.9h-16.5v-15.4h16.5
		V419.9z M396.8,389.1h-16.5v-15.4h16.5V389.1z"/>
</g>
<g>
	<path fill="#B3E5FC" d="M144.6,278.7v-16.5H160v16.5H144.6z M175.5,278.7v-16.5h15.4v16.5H175.5z M206.4,278.7v-16.5h15.4v16.5
		H206.4z M237,278.7v-16.5h15.4v16.5H237z"/>
</g>
<g>
	<g id="Shape_223_4_">
		<g>
			<path fill="#ECECEC" d="M277.5,624.7V479.6c0-15.7-12.6-28.2-28.2-28.2h-221C12.6,451.3,0,463.9,0,479.6v145.2
				C0,640.4,12.6,653,28.2,653h221C264.9,653,277.5,640.1,277.5,624.7z"/>
		</g>
	</g>
	<g id="Shape_224_2_">
		<g>
			<path fill="#01579B" d="M255,628.9V475.4c0-2.4-1.8-4.2-4.2-4.2H33c-2.4,0-4.2,1.8-4.2,4.2v153.5c0,2.4,1.8,4.2,4.2,4.2h217.6
				C252.9,633.1,255,631.3,255,628.9z"/>
		</g>
	</g>
	<g id="Shape_225_2_">
		<g>
			<path fill="#F8981D" d="M19.6,558.5v-12.8c0-2.1-1.8-3.9-3.9-3.9s-3.9,1.8-3.9,3.9v12.8c0,2.1,1.8,3.9,3.9,3.9
				C18,562.5,19.6,560.6,19.6,558.5z"/>
		</g>
	</g>
	<g id="Shape_226_2_">
		<g>
			<circle fill="#ADADAD" cx="266.5" cy="552.3" r="2.4"/>
		</g>
	</g>
</g>
<g>
	<g id="Shape_15_2_">
		<g>
			<path fill="#01579B" d="M120.6,139h-101C8.9,139,0,147.9,0,158.9v233.8c0,11,8.9,19.6,19.6,19.6h100.7c11,0,19.6-8.9,19.6-19.6
				V158.9C140.2,147.9,131.6,139,120.6,139z"/>
		</g>
	</g>
	<g id="Shape_21_3_">
		<g>
			<rect x="11.5" y="185.6" fill="#ECECEC" width="118" height="178.4"/>
		</g>
	</g>
	<g id="Shape_18_3_">
		<g>
			<path fill="#ADADAD" d="M80,160.7H59.4c-1.3,0-2.6,1-2.6,2.6c0,1.3,1,2.6,2.6,2.6H80c1.3,0,2.6-1,2.6-2.6
				C82.6,162.1,81.3,160.7,80,160.7z"/>
		</g>
	</g>
	<g id="Shape_22_3_">
		<g>
			<circle fill="#F8981D" cx="69.3" cy="387.8" r="11.2"/>
		</g>
	</g>
</g>
<g>
	<g id="Shape_30">
		<g>
			<path fill="#01579B" d="M515.2,176.4H262.6c-4.2,0-7.3,3.4-7.3,7.3v167.9h267.6V184C522.6,179.8,519.2,176.4,515.2,176.4z"/>
		</g>
	</g>
	<g id="Shape_31">
		<g>
			<path fill="#ECECEC" d="M510.3,188.5H266.8c-0.5,0-1,0.5-1,1v149.6c0,0.5,0.5,1,1,1h243.5c0.5,0,1-0.5,1-1V189.5
				C511.3,189,510.8,188.5,510.3,188.5z"/>
		</g>
	</g>
	<g id="Shape_32">
		<g>
			<polygon fill="#D0D1D1" points="236.7,351.7 236.7,360.8 245.1,366.3 532,366.3 540.3,360.8 540.3,351.7 			"/>
		</g>
	</g>
	<g id="Shape_157">
		<g>
			<polygon fill="#C2C1C1" points="236.7,360.6 245.1,366.1 532.5,366.1 540.3,360.6 			"/>
		</g>
	</g>
	<g id="Shape_33">
		<g>
			<polygon fill="#D25E27" points="358.3,351.7 363.8,356.9 413.8,356.9 418.7,351.7 			"/>
		</g>
	</g>
</g>
<g>
	<path fill="#ECECEC" d="M564.9,545.7c-5.2,0-10.2,0.8-14.6,2.4c0-1.6,0.3-3.4,0.3-5c0-37.9-30.6-68.5-68.5-68.5
		c-34,0-62.5,24.8-67.7,57.5c-1.8-0.3-3.4-0.3-5.2-0.3c-29.8,0-54.1,24.1-54.1,53.9c0,29.8,24.1,53.9,54.1,53.9c0.8,0,1.6,0,2.1,0
		l0,0h154.6l0,0c25.6-0.3,46.6-21.2,46.6-47.1C612,566.9,591.1,545.7,564.9,545.7"/>
	<path fill="#F8981D" d="M434.7,519.1c-1,0-1.8,0-2.9,0.3c-2.9-17.3-17.8-30.6-35.8-30.6c-20.1,0-36.4,16.2-36.4,36.4
		c0,0.8,0,1.8,0,2.6c-2.4-0.8-5-1.3-7.8-1.3c-13.9,0-24.8,11.2-24.8,24.8s11,24.8,24.6,24.8l0,0h81.9l0,0c0.3,0,0.8,0,1,0
		c15.7,0,28.8-12.8,28.8-28.8C463.4,532.1,450.6,519.1,434.7,519.1"/>
</g>
</svg>
