<?xml version="1.0" encoding="utf-8"?>
<!-- Generator: Adobe Illustrator 18.1.1, SVG Export Plug-In . SVG Version: 6.00 Build 0)  -->
<svg version="1.1" id="Layer_1" xmlns="http://www.w3.org/2000/svg" xmlns:xlink="http://www.w3.org/1999/xlink" x="0px" y="0px"
	 viewBox="0 0 234 196.5" enable-background="new 0 0 234 196.5" xml:space="preserve">
<g>
	<path fill="#B6E3EB" d="M29.7,131.9h-6.3v-5.9h6.3V131.9z M29.7,120.2h-6.3v-5.9h6.3V120.2z M29.7,108.4h-6.3v-5.9h6.3V108.4z
		 M29.7,96.6h-6.3v-5.9h6.3V96.6z"/>
</g>
<g>
	<path fill="#B6E3EB" d="M81,161.2v-6.3h5.9v6.3H81z M92.7,161.2v-6.3h5.9v6.3H92.7z M104.5,161.2v-6.3h5.9v6.3H104.5z M116.3,161.2
		v-6.3h5.9v6.3H116.3z"/>
</g>
<g>
	<path fill="#B6E3EB" d="M151.7,130.9h-6.3v-5.9h6.3V130.9z M151.7,119.2h-6.3v-5.9h6.3V119.2z M151.7,107.4h-6.3v-5.9h6.3V107.4z
		 M151.7,95.6h-6.3v-5.9h6.3V95.6z"/>
</g>
<g>
	<path fill="#B6E3EB" d="M55.3,53.4v-6.3h5.9v6.3H55.3z M67.1,53.4v-6.3H73v6.3H67.1z M78.9,53.4v-6.3h5.9v6.3H78.9z M90.6,53.4
		v-6.3h5.9v6.3H90.6z"/>
</g>
<g>
	<g id="Shape_223_4_">
		<g>
			<path fill-rule="evenodd" clip-rule="evenodd" fill="#ECECEC" d="M106.1,185.7v-55.5c0-6-4.8-10.8-10.8-10.8H10.8
				c-6,0-10.8,4.8-10.8,10.8l0,55.5c0,6,4.8,10.8,10.8,10.8h84.5C101.3,196.5,106.1,191.6,106.1,185.7z"/>
		</g>
	</g>
	<g id="Shape_224_2_">
		<g>
			<path fill-rule="evenodd" clip-rule="evenodd" fill="#01838F" d="M97.5,187.3v-58.7c0-0.9-0.7-1.6-1.6-1.6H12.6
				c-0.9,0-1.6,0.7-1.6,1.6v58.7c0,0.9,0.7,1.6,1.6,1.6h83.2C96.7,188.9,97.5,188.2,97.5,187.3z"/>
		</g>
	</g>
	<g id="Shape_225_2_">
		<g>
			<path fill-rule="evenodd" clip-rule="evenodd" fill="#F8981D" d="M7.5,160.4v-4.9c0-0.8-0.7-1.5-1.5-1.5c-0.8,0-1.5,0.7-1.5,1.5
				v4.9c0,0.8,0.7,1.5,1.5,1.5C6.9,161.9,7.5,161.2,7.5,160.4z"/>
		</g>
	</g>
	<g id="Shape_226_2_">
		<g>
			<circle fill-rule="evenodd" clip-rule="evenodd" fill="#ADADAD" cx="101.9" cy="158" r="0.9"/>
		</g>
	</g>
</g>
<g>
	<g id="Shape_15_2_">
		<g>
			<path fill-rule="evenodd" clip-rule="evenodd" fill="#01838F" d="M46.1,0H7.5C3.4,0,0,3.4,0,7.6V97c0,4.2,3.4,7.5,7.5,7.5h38.5
				c4.2,0,7.5-3.4,7.5-7.5V7.6C53.6,3.4,50.3,0,46.1,0z"/>
		</g>
	</g>
	<g id="Shape_21_3_">
		<g>
			<rect x="4.4" y="17.8" fill-rule="evenodd" clip-rule="evenodd" fill="#ECECEC" width="45.1" height="68.2"/>
		</g>
	</g>
	<g id="Shape_18_3_">
		<g>
			<path fill-rule="evenodd" clip-rule="evenodd" fill="#ADADAD" d="M30.6,8.3h-7.9c-0.5,0-1,0.4-1,1c0,0.5,0.4,1,1,1h7.9
				c0.5,0,1-0.4,1-1C31.6,8.8,31.1,8.3,30.6,8.3z"/>
		</g>
	</g>
	<g id="Shape_22_3_">
		<g>
			<circle fill-rule="evenodd" clip-rule="evenodd" fill="#F8981D" cx="26.5" cy="95.1" r="4.3"/>
		</g>
	</g>
</g>
<g>
	<g id="Shape_30">
		<g>
			<path fill-rule="evenodd" clip-rule="evenodd" fill="#01838F" d="M197,14.3h-96.6c-1.6,0-2.8,1.3-2.8,2.8v64.2h102.3V17.2
				C199.8,15.6,198.5,14.3,197,14.3z"/>
		</g>
	</g>
	<g id="Shape_31">
		<g>
			<path fill-rule="evenodd" clip-rule="evenodd" fill="#ECECEC" d="M195.1,18.9h-93.1c-0.2,0-0.4,0.2-0.4,0.4v57.2
				c0,0.2,0.2,0.4,0.4,0.4h93.1c0.2,0,0.4-0.2,0.4-0.4V19.3C195.5,19.1,195.3,18.9,195.1,18.9z"/>
		</g>
	</g>
	<g id="Shape_32">
		<g>
			<polygon fill-rule="evenodd" clip-rule="evenodd" fill="#D0D1D1" points="90.5,81.3 90.5,84.8 93.7,86.9 203.4,86.9 206.6,84.8 
				206.6,81.3 			"/>
		</g>
	</g>
	<g id="Shape_157">
		<g>
			<polygon fill-rule="evenodd" clip-rule="evenodd" fill="#C2C1C1" points="90.5,84.7 93.7,86.8 203.6,86.8 206.6,84.7 			"/>
		</g>
	</g>
	<g id="Shape_33">
		<g>
			<polygon fill-rule="evenodd" clip-rule="evenodd" fill="#D25E27" points="137,81.3 139.1,83.3 158.2,83.3 160.1,81.3 			"/>
		</g>
	</g>
</g>
<g>
	<path fill="#ECECEC" d="M216,155.5c-2,0-3.9,0.3-5.6,0.9c0-0.6,0.1-1.3,0.1-1.9c0-14.5-11.7-26.2-26.2-26.2c-13,0-23.9,9.5-25.9,22
		c-0.7-0.1-1.3-0.1-2-0.1c-11.4,0-20.7,9.2-20.7,20.6c0,11.4,9.2,20.6,20.7,20.6c0.3,0,0.6,0,0.8,0v0h59.1v0
		c9.8-0.1,17.8-8.1,17.8-18C234,163.6,226,155.5,216,155.5"/>
	<path fill="#F8981D" d="M166.2,145.3c-0.4,0-0.7,0-1.1,0.1c-1.1-6.6-6.8-11.7-13.7-11.7c-7.7,0-13.9,6.2-13.9,13.9c0,0.3,0,0.7,0,1
		c-0.9-0.3-1.9-0.5-3-0.5c-5.3,0-9.5,4.3-9.5,9.5c0,5.2,4.2,9.5,9.4,9.5v0h31.3v0c0.1,0,0.3,0,0.4,0c6,0,11-4.9,11-11
		C177.2,150.3,172.3,145.3,166.2,145.3"/>
</g>
</svg>
