<?xml version="1.0" encoding="utf-8"?>
<!-- Generator: Adobe Illustrator 18.1.1, SVG Export Plug-In . SVG Version: 6.00 Build 0)  -->
<svg version="1.1" id="Layer_1" xmlns="http://www.w3.org/2000/svg" xmlns:xlink="http://www.w3.org/1999/xlink" x="0px" y="0px"
	 viewBox="71.4 26.9 118.4 99.2" enable-background="new 71.4 26.9 118.4 99.2" xml:space="preserve">
<g>
	<path fill="#B3E5FC" d="M86.4,93.5h-3.2v-3h3.2V93.5z M86.4,87.6h-3.2v-3h3.2V87.6z M86.4,81.6h-3.2v-3h3.2V81.6z M86.4,75.7h-3.2
		v-3h3.2V75.7z"/>
</g>
<g>
	<path fill="#B3E5FC" d="M112.3,108.3v-3.2h3v3.2H112.3z M118.2,108.3v-3.2h3v3.2H118.2z M124.2,108.3v-3.2h3v3.2H124.2z
		 M130.2,108.3v-3.2h3v3.2H130.2z"/>
</g>
<g>
	<path fill="#B3E5FC" d="M148,93h-3.2v-3h3.2V93z M148,87.1h-3.2v-3h3.2V87.1z M148,81.1h-3.2v-3h3.2V81.1z M148,75.2h-3.2v-3h3.2
		V75.2z"/>
</g>
<g>
	<path fill="#B3E5FC" d="M99.3,53.8v-3.2h3v3.2H99.3z M105.3,53.8v-3.2h3v3.2H105.3z M111.3,53.8v-3.2h3v3.2H111.3z M117.2,53.8
		v-3.2h3v3.2H117.2z"/>
</g>
<g>
	<g id="Shape_223_4_">
		<g>
			<path fill="#ECECEC" d="M125,120.7v-28c0-3-2.4-5.4-5.4-5.4H76.9c-3,0-5.5,2.4-5.5,5.4v28c0,3,2.4,5.4,5.4,5.4h42.7
				C122.6,126.1,125,123.7,125,120.7z"/>
		</g>
	</g>
	<g id="Shape_224_2_">
		<g>
			<path fill="#0288D1" d="M120.6,121.5V91.8c0-0.5-0.3-0.8-0.8-0.8h-42c-0.5,0-0.8,0.3-0.8,0.8v29.7c0,0.5,0.3,0.8,0.8,0.8h42
				C120.2,122.3,120.6,122,120.6,121.5z"/>
		</g>
	</g>
	<g id="Shape_225_2_">
		<g>
			<path fill="#F8981D" d="M75.2,107.9v-2.5c0-0.4-0.3-0.8-0.8-0.8c-0.4,0-0.8,0.3-0.8,0.8v2.5c0,0.4,0.3,0.8,0.8,0.8
				C74.9,108.7,75.2,108.3,75.2,107.9z"/>
		</g>
	</g>
	<g id="Shape_226_2_">
		<g>
			<circle fill="#ADADAD" cx="122.9" cy="106.7" r="0.5"/>
		</g>
	</g>
</g>
<g>
	<g id="Shape_15_2_">
		<g>
			<path fill="#0288D1" d="M94.7,26.9H75.2c-2.1,0-3.8,1.7-3.8,3.8v45.2c0,2.1,1.7,3.8,3.8,3.8h19.5c2.1,0,3.8-1.7,3.8-3.8V30.7
				C98.5,28.6,96.8,26.9,94.7,26.9z"/>
		</g>
	</g>
	<g id="Shape_21_3_">
		<g>
			<rect x="73.6" y="35.9" fill="#ECECEC" width="22.8" height="34.5"/>
		</g>
	</g>
	<g id="Shape_18_3_">
		<g>
			<path fill="#ADADAD" d="M86.8,31h-4c-0.3,0-0.5,0.2-0.5,0.5s0.2,0.5,0.5,0.5h4c0.3,0,0.5-0.2,0.5-0.5C87.3,31.3,87.1,31,86.8,31z
				"/>
		</g>
	</g>
	<g id="Shape_22_3_">
		<g>
			<circle fill="#F8981D" cx="84.8" cy="74.9" r="2.2"/>
		</g>
	</g>
</g>
<g>
	<g id="Shape_30">
		<g>
			<path fill="#0288D1" d="M170.9,34.1h-48.8c-0.8,0-1.4,0.7-1.4,1.4v32.4h51.7V35.5C172.3,34.7,171.7,34.1,170.9,34.1z"/>
		</g>
	</g>
	<g id="Shape_31">
		<g>
			<path fill="#ECECEC" d="M170,36.4h-47c-0.1,0-0.2,0.1-0.2,0.2v28.9c0,0.1,0.1,0.2,0.2,0.2h47c0.1,0,0.2-0.1,0.2-0.2V36.6
				C170.2,36.5,170.1,36.4,170,36.4z"/>
		</g>
	</g>
	<g id="Shape_32">
		<g>
			<polygon fill="#D0D1D1" points="117.1,67.9 117.1,69.7 118.7,70.8 174.2,70.8 175.8,69.7 175.8,67.9 			"/>
		</g>
	</g>
	<g id="Shape_157">
		<g>
			<polygon fill="#C2C1C1" points="117.1,69.7 118.7,70.7 174.3,70.7 175.8,69.7 			"/>
		</g>
	</g>
	<g id="Shape_33">
		<g>
			<polygon fill="#D25E27" points="140.6,67.9 141.7,68.9 151.3,68.9 152.3,67.9 			"/>
		</g>
	</g>
</g>
<g>
	<path fill="#ECECEC" d="M180.5,105.4c-1,0-2,0.2-2.8,0.5c0-0.3,0.1-0.7,0.1-1c0-7.3-5.9-13.2-13.2-13.2c-6.6,0-12.1,4.8-13.1,11.1
		c-0.3-0.1-0.7-0.1-1-0.1c-5.8,0-10.5,4.7-10.5,10.4s4.7,10.4,10.5,10.4c0.2,0,0.3,0,0.4,0l0,0h29.9l0,0c4.9-0.1,9-4.1,9-9.1
		C189.6,109.5,185.6,105.4,180.5,105.4"/>
	<path fill="#F8981D" d="M155.4,100.3c-0.2,0-0.3,0-0.6,0.1c-0.6-3.3-3.4-5.9-6.9-5.9c-3.9,0-7,3.1-7,7c0,0.2,0,0.3,0,0.5
		c-0.5-0.2-1-0.3-1.5-0.3c-2.7,0-4.8,2.2-4.8,4.8c0,2.6,2.1,4.8,4.8,4.8l0,0h15.8l0,0c0.1,0,0.2,0,0.2,0c3,0,5.6-2.5,5.6-5.6
		C160.9,102.8,158.4,100.3,155.4,100.3"/>
</g>
</svg>
