<?xml version="1.0" encoding="utf-8"?>
<!-- Generator: Adobe Illustrator 18.1.1, SVG Export Plug-In . SVG Version: 6.00 Build 0)  -->
<svg version="1.1" id="Layer_1" xmlns="http://www.w3.org/2000/svg" xmlns:xlink="http://www.w3.org/1999/xlink" x="0px" y="0px"
	 viewBox="16.8 47.6 119.3 153" enable-background="new 16.8 47.6 119.3 153" xml:space="preserve">
<g>
	<g>
		<g id="Shape_213_6_">
			<g>
				<path fill="#ECECEC" d="M134.5,87.3l-32.1-26.9c-1-0.8-2.3-0.8-3,0L84.5,78.1C83.9,78.9,84,80.3,85,81l32.1,26.9
					c1,0.8,2.3,0.8,3,0L135,90.2C135.7,89.4,135.5,88.1,134.5,87.3z"/>
			</g>
		</g>
		<g id="Shape_58_5_" opacity="0.1608">
			<g>
				<path fill="#00838F" d="M112.2,72.8l-10.6-8.9c-0.1-0.1-0.3,0-0.4,0.1l-8.7,10.3c-0.1,0.2-0.2,0.4-0.1,0.5l10.6,8.9
					c0.1,0.1,0.3,0,0.4-0.1l8.7-10.3C112.3,73.1,112.3,72.9,112.2,72.8z"/>
			</g>
		</g>
		<path fill="#0288D1" d="M122.2,99.8l-14.5-12.2c-0.4-0.3-0.9-0.3-1.2,0c-0.3,0.4-0.2,0.9,0.2,1.2l14.5,12.2c0.4,0.3,0.9,0.3,1.2,0
			C122.7,100.7,122.6,100.1,122.2,99.8 M115,99.1l-9.9-8.3c-0.4-0.3-0.9-0.3-1.2,0c-0.3,0.4-0.2,0.9,0.2,1.2l9.9,8.3
			c0.4,0.3,0.9,0.3,1.2,0C115.5,99.9,115.4,99.4,115,99.1"/>
		<path fill="#CDCDCD" d="M131.2,89.1l-14.5-12.2c-0.4-0.3-0.9-0.3-1.2,0c-0.3,0.4-0.2,0.9,0.2,1.2l14.5,12.2c0.4,0.3,0.9,0.3,1.2,0
			S131.6,89.4,131.2,89.1 M128.8,91.9l-14.5-12.2c-0.4-0.3-0.9-0.3-1.2,0c-0.3,0.4-0.2,0.9,0.2,1.2l14.5,12.2c0.4,0.3,0.9,0.3,1.2,0
			C129.3,92.8,129.2,92.2,128.8,91.9"/>
	</g>
	<g id="Shape_213_8_">
		<g>
			<path fill="#CDCDCD" d="M129.3,64.1H87.4c-1.2,0-2.3,0.9-2.3,1.9v23.2c0,1.1,1,1.9,2.3,1.9h41.9c1.2,0,2.3-0.9,2.3-1.9V66
				C131.6,64.9,130.5,64.1,129.3,64.1z"/>
		</g>
	</g>
	<g id="Shape_213">
		<g>
			<path fill="#ECECEC" d="M128.8,63.5H86.8c-1.2,0-2.3,0.9-2.3,1.9v23.2c0,1.1,1,1.9,2.3,1.9h41.9c1.2,0,2.3-0.9,2.3-1.9V65.5
				C131,64.4,130,63.5,128.8,63.5z"/>
		</g>
	</g>
	<g id="Shape_58_1_" opacity="0.1608">
		<g>
			<path d="M102.4,66.8H88.5c-0.1,0-0.2,0.2-0.2,0.4v13.5c0,0.2,0.1,0.4,0.2,0.4h13.9c0.1,0,0.3-0.2,0.3-0.4V67.2
				C102.6,67,102.5,66.8,102.4,66.8z"/>
		</g>
	</g>
	<path fill="#CDCDCD" d="M127.4,81.1h-18.9c-0.5,0-0.9,0.4-0.9,0.8c0,0.4,0.4,0.8,0.9,0.8h19c0.5,0,0.9-0.4,0.9-0.8
		C128.3,81.4,127.9,81.1,127.4,81.1 M121.4,85.1h-13c-0.5,0-0.9,0.4-0.9,0.8c0,0.4,0.4,0.8,0.9,0.8h13c0.5,0,0.9-0.4,0.9-0.8
		C122.3,85.4,121.9,85.1,121.4,85.1"/>
	<path fill="#FF9800" d="M127.4,67.1h-18.9c-0.5,0-0.9,0.4-0.9,0.8c0,0.4,0.4,0.8,0.9,0.8h19c0.5,0,0.9-0.4,0.9-0.8
		C128.3,67.4,127.9,67.1,127.4,67.1 M127.4,70.7h-18.9c-0.5,0-0.9,0.4-0.9,0.8c0,0.4,0.4,0.8,0.9,0.8h19c0.5,0,0.9-0.4,0.9-0.8
		C128.3,71.1,127.9,70.7,127.4,70.7"/>
	<g id="Shape_213_4_">
		<g>
			<path fill="#CDCDCD" d="M124.9,67.6l-13.3-19c-0.6-0.9-1.9-1-3-0.3L74.3,72.4c-1,0.7-1.4,2-0.7,2.9l13.3,19c0.6,0.9,1.9,1,3,0.3
				l34.4-24.1C125.2,69.8,125.5,68.5,124.9,67.6z"/>
		</g>
	</g>
	<g id="Shape_213_2_">
		<g>
			<path fill="#ECECEC" d="M124.3,67.4l-13.3-19c-0.6-0.9-1.9-1-3-0.3L73.7,72.1c-1,0.7-1.4,2-0.7,2.9l13.3,19c0.6,0.9,1.9,1,3,0.3
				l34.4-24.1C124.6,69.5,124.9,68.2,124.3,67.4z"/>
		</g>
	</g>
	<g id="Shape_58_3_" opacity="0.1608">
		<g>
			<path fill="#03A9F4" d="M94.1,72.8l-5-7.1c-0.1-0.1-0.2-0.1-0.4-0.1L76.9,74c-0.1,0.1-0.2,0.2-0.1,0.4l4.9,7.1
				c0.1,0.1,0.2,0.1,0.4,0.1L94,73.1C94.1,73,94.1,72.9,94.1,72.8z"/>
		</g>
	</g>
	<path fill="#FF9800" d="M98.3,77.8L85,87.1c-0.4,0.3-0.4,0.8-0.2,1.1c0.3,0.4,0.8,0.4,1.1,0.2l13.3-9.3c0.4-0.3,0.4-0.8,0.2-1.1
		C99.2,77.6,98.7,77.5,98.3,77.8 M96.4,84l-9.1,6.4c-0.4,0.3-0.4,0.8-0.2,1.1c0.3,0.4,0.8,0.4,1.1,0.2l9.1-6.4
		c0.4-0.3,0.4-0.8,0.2-1.1C97.2,83.8,96.8,83.7,96.4,84"/>
	<path fill="#CDCDCD" d="M108.1,53.1l-13.3,9.3c-0.4,0.3-0.4,0.8-0.2,1.1c0.3,0.4,0.8,0.4,1.1,0.2l13.3-9.3c0.4-0.3,0.4-0.8,0.2-1.1
		C108.9,52.9,108.4,52.8,108.1,53.1 M106.2,59.3l-9.1,6.4c-0.4,0.3-0.4,0.8-0.2,1.1c0.3,0.4,0.8,0.4,1.1,0.2l9.1-6.4
		c0.4-0.3,0.4-0.8,0.2-1.1C107,59.1,106.5,59,106.2,59.3"/>
</g>
<g>
	<g>
		<g id="Shape_106">
			<g>
				<path fill="#0288D1" d="M83.8,104.7h-4.2l-0.2-0.6c0-0.6-0.5-1.2-1.2-1.2h-3.4c-0.6,0-1.2,0.5-1.2,1.2l-0.1,0.6h-9l-1.8-5.9
					c0-0.6-0.5-1.2-1.2-1.2H41.5c-0.6,0-1.2,0.5-1.2,1.2l-1.7,5.9h-7.7l-0.1-0.6c0-0.6-0.5-1.2-1.2-1.2h-5.5c-0.6,0-1.2,0.5-1.2,1.2
					l-0.1,0.6h-3.9c-1.1,0-1.9,0.8-1.9,1.9v37.2c0,1.1,0.8,1.9,1.9,1.9h65c1.1,0,1.9-0.8,1.9-1.9v-37.3
					C85.7,105.5,84.9,104.7,83.8,104.7z"/>
			</g>
		</g>
	</g>
	<g id="Shape_106_copy">
		<g>
			<path fill="#CECECD" d="M83.8,104.7h-65c-1.1,0-1.9,0.8-1.9,1.9v2.2h68.9v-2.2C85.7,105.5,84.9,104.7,83.8,104.7z"/>
		</g>
	</g>
	<g id="Shape_106_copy_2">
		<g>
			<path fill="#FF9933" d="M16.9,141.8v2.2c0,1.1,0.8,1.9,1.9,1.9h65c1.1,0,1.9-0.8,1.9-1.9v-2.2H16.9z"/>
		</g>
	</g>
	<g id="Shape_62_copy_4">
		<g>
			<path fill="#ECECEC" d="M51.3,110.9c-7.8,0-14,6.3-14,14s6.2,14,14,14c7.8,0,14-6.2,14-14S59,110.9,51.3,110.9z M51.3,135.7
				c-5.9,0-10.7-4.8-10.7-10.7c0-5.9,4.8-10.7,10.7-10.7c5.9,0,10.7,4.8,10.7,10.7C62,130.9,57.2,135.7,51.3,135.7z"/>
		</g>
	</g>
	<g id="Shape_111" opacity="0.3608">
		<g>
			<path fill="#ECECEC" d="M51.4,117.3c-4.1,0-7.4,3.3-7.4,7.4c0,4.1,3.3,7.4,7.4,7.4c4.1,0,7.4-3.3,7.4-7.4
				C58.8,120.6,55.5,117.3,51.4,117.3z"/>
		</g>
	</g>
	<g id="Shape_110">
		<g>
			<path fill="#ECECEC" d="M59.3,99.9H43.6c-0.6,0-1.2,0.5-1.2,1.2v0.3c0,0.6,0.5,1.2,1.2,1.2h15.7c0.6,0,1.2-0.5,1.2-1.2v-0.2
				C60.5,100.5,59.9,99.9,59.3,99.9z"/>
		</g>
	</g>
</g>
<g>
	<path fill="#ECECEC" d="M124.6,167.8c-1.3,0-2.5,0.2-3.6,0.6c0.1-0.4,0.1-0.8,0.1-1.3c0-9.3-7.5-16.9-16.9-16.9
		c-8.4,0-15.4,6.2-16.7,14.2c-0.4-0.1-0.9-0.1-1.3-0.1c-7.4,0-13.3,6-13.3,13.3c0,7.4,5.9,13.3,13.3,13.3c0.2,0,0.4,0,0.5,0l0,0h38
		l0,0c6.3-0.1,11.5-5.2,11.5-11.6S131,167.8,124.6,167.8"/>
	<path fill="#F8981D" d="M115.6,184.7c-0.1-0.2-0.4-0.4-0.6-0.4h-5.5v-14.2c0-0.6-0.5-1.2-1.2-1.2h-7.4c-0.6,0-1.2,0.5-1.2,1.2v14.2
		h-5.5c-0.3,0-0.5,0.2-0.6,0.4c-0.1,0.1-0.1,0.2-0.1,0.4c0,0.2,0.1,0.3,0.1,0.4l10.4,14.8c0.1,0.2,0.4,0.3,0.6,0.3s0.5-0.1,0.6-0.3
		l10.4-14.8C115.7,185.2,115.7,184.9,115.6,184.7"/>
</g>
<g>
	<g>
		<path fill="#B3E5FC" d="M51.5,75.4v-2.8h2.6v2.8H51.5z M56.8,75.4v-2.8h2.7v2.8H56.8z M62.1,75.4v-2.8h2.7v2.8H62.1z M67.3,75.4
			v-2.8h2.7v2.8H67.3z"/>
	</g>
	<g>
		<path fill="#B3E5FC" d="M54.3,95.8h-2.8v-2.6h2.8V95.8z M54.3,90.6h-2.8V88h2.8V90.6z M54.3,85.3h-2.8v-2.7h2.8V85.3z M54.3,80.1
			h-2.8v-2.7h2.8V80.1z"/>
	</g>
</g>
<g>
	<path fill="#B3E5FC" d="M87.2,127.6v-2.8h2.7v2.8H87.2z M92.5,127.6v-2.8h2.7v2.8H92.5z M97.8,127.6v-2.8h2.7v2.8H97.8z M103,127.6
		v-2.8h2.7v2.8H103z"/>
</g>
<g>
	<path fill="#B3E5FC" d="M105.9,148h-2.8v-2.7h2.8V148z M105.9,142.8h-2.8v-2.7h2.8V142.8z M105.9,137.5h-2.8v-2.7h2.8V137.5z
		 M105.9,132.2h-2.8v-2.7h2.8V132.2z"/>
</g>
</svg>
