<?xml version="1.0" encoding="utf-8"?>
<!-- Generator: Adobe Illustrator 18.1.1, SVG Export Plug-In . SVG Version: 6.00 Build 0)  -->
<svg version="1.1" id="Layer_1" xmlns="http://www.w3.org/2000/svg" xmlns:xlink="http://www.w3.org/1999/xlink" x="0px" y="0px"
	 viewBox="-54 47.6 612 784.7" enable-background="new -54 47.6 612 784.7" xml:space="preserve">
<g>
	<g>
		<g id="Shape_213_6_">
			<g>
				<path fill="#ECECEC" d="M549.6,251L384.9,112.8c-4.9-4.1-11.8-4-15.3,0.2l-76.4,91.1c-3.5,4.2-2.5,11,2.5,15l164.8,138.2
					c4.9,4.1,11.8,4,15.3-0.2l76.4-91.1C555.6,261.9,554.5,255.2,549.6,251z"/>
			</g>
		</g>
		<g id="Shape_58_5_" opacity="0.1608">
			<g>
				<path fill="#00838F" d="M435.1,177l-54.5-45.7c-0.5-0.4-1.6-0.1-2.3,0.7l-44.4,53c-0.7,0.9-0.9,1.9-0.4,2.4l54.5,45.7
					c0.5,0.4,1.6,0.2,2.3-0.7l44.4-53C435.6,178.5,435.6,177.5,435.1,177z"/>
			</g>
		</g>
		<path fill="#01579B" d="M486.4,315.3L412,252.8c-2-1.7-4.8-1.7-6.3,0.1s-1.1,4.5,1,6.2l74.4,62.5c2,1.7,4.8,1.7,6.3-0.1
			C488.7,319.8,488.3,317.1,486.4,315.3 M449.6,311.5l-50.9-42.8c-2-1.7-4.8-1.7-6.3,0.1c-1.5,1.8-1.1,4.5,1,6.2l50.9,42.7
			c2,1.7,4.8,1.7,6.3-0.1C452.1,315.9,451.7,313.2,449.6,311.5"/>
		<path fill="#CDCDCD" d="M532.5,260.4l-74.4-62.5c-2-1.7-4.8-1.7-6.3,0.1s-1.1,4.5,1,6.2l74.4,62.5c2,1.7,4.8,1.7,6.3-0.1
			S534.5,262,532.5,260.4 M520.4,274.9L446,212.4c-2-1.7-4.8-1.7-6.3,0.1s-1.1,4.5,1,6.2l74.4,62.5c2,1.7,4.8,1.7,6.3-0.1
			C522.8,279.4,522.4,276.5,520.4,274.9"/>
	</g>
	<g id="Shape_213_8_">
		<g>
			<path fill="#CDCDCD" d="M522.7,132h-215c-6.4,0-11.6,4.5-11.6,10v118.9c0,5.5,5.2,10,11.6,10h215.1c6.4,0,11.6-4.5,11.6-10V142
				C534.4,136.5,529.2,132,522.7,132z"/>
		</g>
	</g>
	<g id="Shape_213">
		<g>
			<path fill="#ECECEC" d="M520,129.2H305c-6.4,0-11.6,4.5-11.6,10v118.9c0,5.5,5.2,10,11.6,10h215.1c6.4,0,11.6-4.5,11.6-10V139.2
				C531.7,133.7,526.5,129.2,520,129.2z"/>
		</g>
	</g>
	<g id="Shape_58_1_" opacity="0.1608">
		<g>
			<path d="M384.8,146.1h-71.2c-0.7,0-1.2,0.9-1.2,2v69.1c0,1.1,0.6,2,1.2,2h71.2c0.7,0,1.3-0.9,1.3-2v-69.1
				C386.1,147.1,385.5,146.1,384.8,146.1z"/>
		</g>
	</g>
	<path fill="#CDCDCD" d="M513,219.2h-97.1c-2.6,0-4.8,1.8-4.8,4.1s2.1,4.1,4.8,4.1h97.2c2.6,0,4.8-1.8,4.8-4.1
		C517.6,221,515.6,219.2,513,219.2 M482.4,239.7h-66.5c-2.6,0-4.8,1.8-4.8,4.1s2.1,4.1,4.8,4.1h66.5c2.6,0,4.8-1.8,4.8-4.1
		C487.1,241.5,485,239.7,482.4,239.7"/>
	<path fill="#FF9800" d="M513,147.4h-97.1c-2.6,0-4.8,1.8-4.8,4.1s2.1,4.1,4.8,4.1h97.2c2.6,0,4.8-1.8,4.8-4.1
		C517.6,149.2,515.6,147.4,513,147.4 M513,166.2h-97.1c-2.6,0-4.8,1.8-4.8,4.1s2.1,4.1,4.8,4.1h97.2c2.6,0,4.8-1.8,4.8-4.1
		C517.7,168.1,515.6,166.2,513,166.2"/>
	<g id="Shape_213_4_">
		<g>
			<path fill="#CDCDCD" d="M500.2,150L432,52.7c-3.2-4.5-10-5.2-15.2-1.5L240.5,174.6c-5.3,3.7-7,10.4-3.8,14.8l68.3,97.4
				c3.2,4.6,10,5.2,15.2,1.5l176.2-123.4C501.7,161.3,503.4,154.6,500.2,150z"/>
		</g>
	</g>
	<g id="Shape_213_2_">
		<g>
			<path fill="#ECECEC" d="M497,148.9l-68.3-97.4c-3.2-4.5-10-5.2-15.2-1.5L237.4,173.4c-5.3,3.7-7,10.4-3.8,14.8l68.3,97.4
				c3.2,4.6,10,5.2,15.2,1.5l176.2-123.4C498.5,160.1,500.1,153.4,497,148.9z"/>
		</g>
	</g>
	<g id="Shape_58_3_" opacity="0.1608">
		<g>
			<path fill="#03A9F4" d="M342.1,176.7l-25.4-36.3c-0.4-0.6-1.2-0.7-1.8-0.3L254,182.9c-0.6,0.4-0.8,1.2-0.4,1.8l25.3,36.2
				c0.4,0.6,1.2,0.7,1.8,0.3l60.9-42.6C342.3,178.1,342.4,177.2,342.1,176.7z"/>
		</g>
	</g>
	<path fill="#FF9800" d="M363.9,202.3l-68.4,47.9c-1.8,1.3-2.3,3.9-1,5.7s3.9,2.3,5.7,1.1l68.4-47.9c1.8-1.3,2.3-3.9,1-5.7
		C368.3,201.4,365.7,201,363.9,202.3 M354,234.1l-46.8,32.8c-1.8,1.3-2.3,3.9-1,5.7c1.3,1.8,3.9,2.3,5.7,1.1l46.8-32.8
		c1.8-1.3,2.3-3.9,1-5.7C358.4,233.4,355.9,232.8,354,234.1"/>
	<path fill="#CDCDCD" d="M413.9,75.6l-68.4,47.9c-1.8,1.3-2.3,3.9-1,5.7c1.3,1.8,3.9,2.3,5.7,1.1l68.4-47.9c1.8-1.3,2.3-3.9,1-5.7
		C418.3,74.9,415.8,74.4,413.9,75.6 M404.2,107.6l-46.8,32.8c-1.8,1.3-2.3,3.9-1,5.7s3.9,2.3,5.7,1.1l46.8-32.8
		c1.8-1.3,2.3-3.9,1-5.7C408.5,106.8,405.9,106.3,404.2,107.6"/>
</g>
<g>
	<g>
		<g id="Shape_106">
			<g>
				<path fill="#01579B" d="M289.4,340.5H268l-1-3.3c0-3.3-2.6-6.3-6.3-6.3h-17.4c-3.3,0-6.3,2.6-6.3,6.3l-0.4,3.3h-46.4l-9.4-30.4
					c0-3.3-2.6-6.3-6.3-6.3H72.4c-3.3,0-6.3,2.6-6.3,6.3l-8.7,30.4H18.1l-0.7-3.3c0-3.3-2.6-6.3-6.3-6.3H-17c-3.3,0-6.3,2.6-6.3,6.3
					l-0.7,3.3h-20c-5.4,0-10,4.3-10,10v190.8c0,5.4,4.3,10,10,10h333.6c5.4,0,10-4.3,10-10V350.1
					C299.3,344.7,294.9,340.5,289.4,340.5z"/>
			</g>
		</g>
	</g>
	<g id="Shape_106_copy">
		<g>
			<path fill="#CECECD" d="M289.4,340.5H-43.9c-5.4,0-10,4.3-10,10v11.4h353.2v-11.4C299.3,344.7,294.9,340.5,289.4,340.5z"/>
		</g>
	</g>
	<g id="Shape_106_copy_2">
		<g>
			<path fill="#FF9933" d="M-53.9,530.6V542c0,5.4,4.3,9.7,10,9.7h333.6c5.4,0,10-4.3,10-9.7v-11.4H-53.9z"/>
		</g>
	</g>
	<g id="Shape_62_copy_4">
		<g>
			<path fill="#ECECEC" d="M122.6,372.4c-39.8,0-72,32.4-72,72s32,72,72,72c39.8,0,72-32,72-72S162.5,372.4,122.6,372.4z
				 M122.6,499.2c-30.4,0-54.7-24.6-54.7-54.7c0-30.4,24.6-54.7,54.7-54.7c30.4,0,54.7,24.6,54.7,54.7
				C177.6,474.6,152.9,499.2,122.6,499.2z"/>
		</g>
	</g>
	<g id="Shape_111" opacity="0.3608">
		<g>
			<path fill="#ECECEC" d="M123.3,405.2c-21,0-38.1,17-38.1,38.1c0,21,17,38.1,38.1,38.1c21,0,38.1-17,38.1-38.1
				C161.2,422.2,144.2,405.2,123.3,405.2z"/>
		</g>
	</g>
	<g id="Shape_110">
		<g>
			<path fill="#ECECEC" d="M163.6,316H83.2c-3.3,0-6.3,2.6-6.3,6.3v1.3c0,3.3,2.6,6.3,6.3,6.3h80.7c3.3,0,6.3-2.6,6.3-6.3v-1.2
				C169.9,318.8,166.9,316,163.6,316z"/>
		</g>
	</g>
</g>
<g>
	<path fill="#ECECEC" d="M498.7,664.2c-6.5,0-12.8,1.1-18.6,3c0.3-2.1,0.3-4.1,0.3-6.5c0-47.8-38.7-86.7-86.5-86.7
		c-43,0-78.8,31.6-85.6,72.6c-2.1-0.3-4.4-0.3-6.5-0.3c-37.8,0-68.2,30.7-68.2,68.2c0,37.8,30.4,68.2,68.2,68.2c0.9,0,1.8,0,2.6,0
		l0,0h194.8l0,0c32.5-0.3,58.8-26.8,58.8-59.3S531.4,664.2,498.7,664.2"/>
	<path fill="#F8981D" d="M452.3,750.8c-0.6-1.1-2.1-2.1-3.3-2.1h-28.3v-72.6c0-3.3-2.6-5.9-5.9-5.9h-38.1c-3.3,0-5.9,2.6-5.9,5.9
		v72.6h-28.3c-1.5,0-2.6,0.9-3.3,2.1c-0.3,0.6-0.3,1.1-0.3,1.8c0,0.9,0.3,1.5,0.6,2.1l53.4,76.1c0.6,0.9,1.8,1.5,3,1.5
		s2.4-0.6,3-1.5l53.1-76.1C453,753.4,453,751.9,452.3,750.8"/>
</g>
<g>
	<g>
		<path fill="#B3E5FC" d="M123.9,190.1v-14.4h13.5v14.4H123.9z M151,190.1v-14.4h13.6v14.4H151z M178,190.1v-14.4h13.6v14.4H178z
			 M204.8,190.1v-14.4h13.6v14.4H204.8z"/>
	</g>
	<g>
		<path fill="#B3E5FC" d="M138,295h-14.4v-13.5H138V295z M138,268.2h-14.4v-13.5H138V268.2z M138,241.1h-14.4v-13.6H138V241.1z
			 M138,214.1h-14.4v-13.6H138V214.1z"/>
	</g>
</g>
<g>
	<path fill="#B3E5FC" d="M307,457.7v-14.4h13.6v14.4H307z M334.1,457.7v-14.4h13.6v14.4H334.1z M361.1,457.7v-14.4h13.6v14.4H361.1z
		 M388,457.7v-14.4h13.6v14.4H388z"/>
</g>
<g>
	<path fill="#B3E5FC" d="M402.6,562.7h-14.4v-13.6h14.4V562.7z M402.6,535.9h-14.4v-13.6h14.4V535.9z M402.6,508.8h-14.4v-13.6h14.4
		V508.8z M402.6,481.7h-14.4v-13.6h14.4V481.7z"/>
</g>
</svg>
