<?xml version="1.0" encoding="utf-8"?>
<!-- Generator: Adobe Illustrator 18.1.1, SVG Export Plug-In . SVG Version: 6.00 Build 0)  -->
<svg version="1.1" id="Layer_1" xmlns="http://www.w3.org/2000/svg" xmlns:xlink="http://www.w3.org/1999/xlink" x="0px" y="0px"
	 viewBox="-54 43.9 612 784.7" enable-background="new -54 43.9 612 784.7" xml:space="preserve">
<g>
	<g>
		<g id="Shape_213_6_">
			<g>
				<path fill="#ECECEC" d="M549.6,247.3L384.9,109.1c-4.9-4.1-11.8-4-15.3,0.2l-76.4,91.1c-3.5,4.2-2.5,11,2.5,15l164.8,138.2
					c4.9,4.1,11.8,4,15.3-0.2l76.4-91.1C555.6,258.2,554.5,251.5,549.6,247.3z"/>
			</g>
		</g>
		<g id="Shape_58_5_" opacity="0.1608">
			<g>
				<path fill="#00838F" d="M435.1,173.3l-54.5-45.7c-0.5-0.4-1.6-0.1-2.3,0.7l-44.4,53c-0.7,0.9-0.9,1.9-0.4,2.4l54.5,45.7
					c0.5,0.4,1.6,0.2,2.3-0.7l44.4-53C435.6,174.8,435.6,173.8,435.1,173.3z"/>
			</g>
		</g>
		<path fill="#03A9F4" d="M486.4,311.6L412,249.1c-2-1.7-4.8-1.7-6.3,0.1s-1.1,4.5,1,6.2l74.4,62.5c2,1.7,4.8,1.7,6.3-0.1
			C488.7,316.1,488.3,313.4,486.4,311.6 M449.6,307.8L398.7,265c-2-1.7-4.8-1.7-6.3,0.1c-1.5,1.8-1.1,4.5,1,6.2l50.9,42.7
			c2,1.7,4.8,1.7,6.3-0.1C452.1,312.2,451.7,309.5,449.6,307.8"/>
		<path fill="#CDCDCD" d="M532.5,256.7l-74.4-62.5c-2-1.7-4.8-1.7-6.3,0.1s-1.1,4.5,1,6.2l74.4,62.5c2,1.7,4.8,1.7,6.3-0.1
			S534.5,258.3,532.5,256.7 M520.4,271.2L446,208.7c-2-1.7-4.8-1.7-6.3,0.1s-1.1,4.5,1,6.2l74.4,62.5c2,1.7,4.8,1.7,6.3-0.1
			C522.8,275.7,522.4,272.8,520.4,271.2"/>
	</g>
	<g id="Shape_213_8_">
		<g>
			<path fill="#CDCDCD" d="M522.7,128.3h-215c-6.4,0-11.6,4.5-11.6,10v118.9c0,5.5,5.2,10,11.6,10h215.1c6.4,0,11.6-4.5,11.6-10
				V138.3C534.4,132.8,529.2,128.3,522.7,128.3z"/>
		</g>
	</g>
	<g id="Shape_213">
		<g>
			<path fill="#ECECEC" d="M520,125.5H305c-6.4,0-11.6,4.5-11.6,10v118.9c0,5.5,5.2,10,11.6,10h215.1c6.4,0,11.6-4.5,11.6-10V135.5
				C531.7,130,526.5,125.5,520,125.5z"/>
		</g>
	</g>
	<g id="Shape_58_1_" opacity="0.1608">
		<g>
			<path d="M384.8,142.4h-71.2c-0.7,0-1.2,0.9-1.2,2v69.1c0,1.1,0.6,2,1.2,2h71.2c0.7,0,1.3-0.9,1.3-2v-69.1
				C386.1,143.4,385.5,142.4,384.8,142.4z"/>
		</g>
	</g>
	<path fill="#CDCDCD" d="M513,215.5h-97.1c-2.6,0-4.8,1.8-4.8,4.1s2.1,4.1,4.8,4.1h97.2c2.6,0,4.8-1.8,4.8-4.1
		C517.6,217.3,515.6,215.5,513,215.5 M482.4,236h-66.5c-2.6,0-4.8,1.8-4.8,4.1s2.1,4.1,4.8,4.1h66.5c2.6,0,4.8-1.8,4.8-4.1
		C487.1,237.8,485,236,482.4,236"/>
	<path fill="#FF9800" d="M513,143.7h-97.1c-2.6,0-4.8,1.8-4.8,4.1s2.1,4.1,4.8,4.1h97.2c2.6,0,4.8-1.8,4.8-4.1
		C517.6,145.5,515.6,143.7,513,143.7 M513,162.5h-97.1c-2.6,0-4.8,1.8-4.8,4.1s2.1,4.1,4.8,4.1h97.2c2.6,0,4.8-1.8,4.8-4.1
		C517.7,164.4,515.6,162.5,513,162.5"/>
	<g id="Shape_213_4_">
		<g>
			<path fill="#CDCDCD" d="M500.2,146.3L432,49c-3.2-4.5-10-5.2-15.2-1.5L240.5,170.9c-5.3,3.7-7,10.4-3.8,14.8l68.3,97.4
				c3.2,4.6,10,5.2,15.2,1.5l176.2-123.4C501.7,157.6,503.4,150.9,500.2,146.3z"/>
		</g>
	</g>
	<g id="Shape_213_2_">
		<g>
			<path fill="#ECECEC" d="M497,145.2l-68.3-97.4c-3.2-4.5-10-5.2-15.2-1.5L237.4,169.7c-5.3,3.7-7,10.4-3.8,14.8l68.3,97.4
				c3.2,4.6,10,5.2,15.2,1.5L493.3,160C498.5,156.4,500.1,149.7,497,145.2z"/>
		</g>
	</g>
	<g id="Shape_58_3_" opacity="0.1608">
		<g>
			<path fill="#03A9F4" d="M342.1,173l-25.4-36.3c-0.4-0.6-1.2-0.7-1.8-0.3L254,179.2c-0.6,0.4-0.8,1.2-0.4,1.8l25.3,36.2
				c0.4,0.6,1.2,0.7,1.8,0.3l60.9-42.6C342.3,174.4,342.4,173.5,342.1,173z"/>
		</g>
	</g>
	<path fill="#FF9800" d="M363.9,198.6l-68.4,47.9c-1.8,1.3-2.3,3.9-1,5.7s3.9,2.3,5.7,1.1l68.4-47.9c1.8-1.3,2.3-3.9,1-5.7
		C368.3,197.7,365.7,197.3,363.9,198.6 M354,230.4l-46.8,32.8c-1.8,1.3-2.3,3.9-1,5.7c1.3,1.8,3.9,2.3,5.7,1.1l46.8-32.8
		c1.8-1.3,2.3-3.9,1-5.7C358.4,229.7,355.9,229.1,354,230.4"/>
	<path fill="#CDCDCD" d="M413.9,71.9l-68.4,47.9c-1.8,1.3-2.3,3.9-1,5.7c1.3,1.8,3.9,2.3,5.7,1.1l68.4-47.9c1.8-1.3,2.3-3.9,1-5.7
		C418.3,71.2,415.8,70.7,413.9,71.9 M404.2,103.9l-46.8,32.8c-1.8,1.3-2.3,3.9-1,5.7s3.9,2.3,5.7,1.1l46.8-32.8
		c1.8-1.3,2.3-3.9,1-5.7C408.5,103.1,405.9,102.6,404.2,103.9"/>
</g>
<g>
	<g>
		<g id="Shape_106">
			<g>
				<path fill="#03A9F4" d="M289.4,336.8H268l-1-3.3c0-3.3-2.6-6.3-6.3-6.3h-17.4c-3.3,0-6.3,2.6-6.3,6.3l-0.4,3.3h-46.4l-9.4-30.4
					c0-3.3-2.6-6.3-6.3-6.3H72.4c-3.3,0-6.3,2.6-6.3,6.3l-8.7,30.4H18.1l-0.7-3.3c0-3.3-2.6-6.3-6.3-6.3H-17c-3.3,0-6.3,2.6-6.3,6.3
					l-0.7,3.3h-20c-5.4,0-10,4.3-10,10v190.8c0,5.4,4.3,10,10,10h333.6c5.4,0,10-4.3,10-10V346.4C299.3,341,294.9,336.8,289.4,336.8
					z"/>
			</g>
		</g>
	</g>
	<g id="Shape_106_copy">
		<g>
			<path fill="#CECECD" d="M289.4,336.8H-43.9c-5.4,0-10,4.3-10,10v11.4h353.2v-11.4C299.3,341,294.9,336.8,289.4,336.8z"/>
		</g>
	</g>
	<g id="Shape_106_copy_2">
		<g>
			<path fill="#FF9933" d="M-53.9,526.9v11.4c0,5.4,4.3,9.7,10,9.7h333.6c5.4,0,10-4.3,10-9.7v-11.4H-53.9z"/>
		</g>
	</g>
	<g id="Shape_62_copy_4">
		<g>
			<path fill="#ECECEC" d="M122.6,368.7c-39.8,0-72,32.4-72,72s32,72,72,72c39.8,0,72-32,72-72S162.5,368.7,122.6,368.7z
				 M122.6,495.5c-30.4,0-54.7-24.6-54.7-54.7c0-30.4,24.6-54.7,54.7-54.7c30.4,0,54.7,24.6,54.7,54.7
				C177.6,470.9,152.9,495.5,122.6,495.5z"/>
		</g>
	</g>
	<g id="Shape_111" opacity="0.3608">
		<g>
			<path fill="#ECECEC" d="M123.3,401.5c-21,0-38.1,17-38.1,38.1c0,21,17,38.1,38.1,38.1c21,0,38.1-17,38.1-38.1
				C161.2,418.5,144.2,401.5,123.3,401.5z"/>
		</g>
	</g>
	<g id="Shape_110">
		<g>
			<path fill="#ECECEC" d="M163.6,312.3H83.2c-3.3,0-6.3,2.6-6.3,6.3v1.3c0,3.3,2.6,6.3,6.3,6.3h80.7c3.3,0,6.3-2.6,6.3-6.3v-1.2
				C169.9,315.1,166.9,312.3,163.6,312.3z"/>
		</g>
	</g>
</g>
<g>
	<path fill="#ECECEC" d="M498.7,660.5c-6.5,0-12.8,1.1-18.6,3c0.3-2.1,0.3-4.1,0.3-6.5c0-47.8-38.7-86.7-86.5-86.7
		c-43,0-78.8,31.6-85.6,72.6c-2.1-0.3-4.4-0.3-6.5-0.3c-37.8,0-68.2,30.7-68.2,68.2c0,37.8,30.4,68.2,68.2,68.2c0.9,0,1.8,0,2.6,0
		l0,0h194.8l0,0c32.5-0.3,58.8-26.8,58.8-59.3S531.4,660.5,498.7,660.5"/>
	<path fill="#F8981D" d="M452.3,747.1c-0.6-1.1-2.1-2.1-3.3-2.1h-28.3v-72.6c0-3.3-2.6-5.9-5.9-5.9h-38.1c-3.3,0-5.9,2.6-5.9,5.9
		V745h-28.3c-1.5,0-2.6,0.9-3.3,2.1c-0.3,0.6-0.3,1.1-0.3,1.8c0,0.9,0.3,1.5,0.6,2.1l53.4,76.1c0.6,0.9,1.8,1.5,3,1.5s2.4-0.6,3-1.5
		L452,751C453,749.7,453,748.2,452.3,747.1"/>
</g>
<g>
	<g>
		<path fill="#B3E5FC" d="M123.9,186.4V172h13.5v14.4H123.9z M151,186.4V172h13.6v14.4H151z M178,186.4V172h13.6v14.4H178z
			 M204.8,186.4V172h13.6v14.4H204.8z"/>
	</g>
	<g>
		<path fill="#B3E5FC" d="M138,291.3h-14.4v-13.5H138V291.3z M138,264.5h-14.4V251H138V264.5z M138,237.4h-14.4v-13.6H138V237.4z
			 M138,210.4h-14.4v-13.6H138V210.4z"/>
	</g>
</g>
<g>
	<path fill="#B3E5FC" d="M307,454v-14.4h13.6V454H307z M334.1,454v-14.4h13.6V454H334.1z M361.1,454v-14.4h13.6V454H361.1z M388,454
		v-14.4h13.6V454H388z"/>
</g>
<g>
	<path fill="#B3E5FC" d="M402.6,559h-14.4v-13.6h14.4V559z M402.6,532.2h-14.4v-13.6h14.4V532.2z M402.6,505.1h-14.4v-13.6h14.4
		V505.1z M402.6,478h-14.4v-13.6h14.4V478z"/>
</g>
</svg>
