<?xml version="1.0" encoding="utf-8"?>
<!-- Generator: Adobe Illustrator 18.1.1, SVG Export Plug-In . SVG Version: 6.00 Build 0)  -->
<svg version="1.1" id="Layer_1" xmlns="http://www.w3.org/2000/svg" xmlns:xlink="http://www.w3.org/1999/xlink" x="0px" y="0px"
	 viewBox="-54 40.2 614.2 787.4" enable-background="new -54 40.2 614.2 787.4" xml:space="preserve">
<g>
	<g>
		<g id="Shape_213_6_">
			<g>
				<path fill="#ECECEC" d="M551.8,244.3L386.5,105.6c-4.9-4.1-11.8-4-15.4,0.2l-76.7,91.4c-3.5,4.2-2.5,11,2.5,15.1l165.4,138.7
					c4.9,4.1,11.8,4,15.4-0.2l76.7-91.4C557.8,255.3,556.7,248.5,551.8,244.3z"/>
			</g>
		</g>
		<g id="Shape_58_5_" opacity="0.1608">
			<g>
				<path fill="#00838F" d="M436.9,170.1l-54.7-45.9c-0.5-0.4-1.6-0.1-2.3,0.7l-44.6,53.2c-0.7,0.9-0.9,1.9-0.4,2.4l54.7,45.9
					c0.5,0.4,1.6,0.2,2.3-0.7l44.6-53.2C437.4,171.6,437.4,170.6,436.9,170.1z"/>
			</g>
		</g>
		<path fill="#00838F" d="M488.3,308.9l-74.7-62.7c-2-1.7-4.8-1.7-6.3,0.1c-1.5,1.8-1.1,4.5,1,6.2l74.7,62.7c2,1.7,4.8,1.7,6.3-0.1
			C490.7,313.4,490.2,310.7,488.3,308.9 M451.4,305l-51.1-42.9c-2-1.7-4.8-1.7-6.3,0.1s-1.1,4.5,1,6.2l51.1,42.9
			c2,1.7,4.8,1.7,6.3-0.1C453.9,309.5,453.5,306.7,451.4,305"/>
		<path fill="#CDCDCD" d="M534.6,253.8l-74.7-62.7c-2-1.7-4.8-1.7-6.3,0.1c-1.5,1.8-1.1,4.5,1,6.2l74.7,62.7c2,1.7,4.8,1.7,6.3-0.1
			C537.1,258.2,536.6,255.4,534.6,253.8 M522.5,268.3l-74.7-62.7c-2-1.7-4.8-1.7-6.3,0.1c-1.5,1.8-1.1,4.5,1,6.2l74.7,62.7
			c2,1.7,4.8,1.7,6.3-0.1C524.9,272.8,524.5,269.9,522.5,268.3"/>
	</g>
	<g id="Shape_213_8_">
		<g>
			<path fill="#CDCDCD" d="M524.8,124.9H309c-6.4,0-11.6,4.5-11.6,10v119.3c0,5.5,5.2,10,11.6,10h215.9c6.4,0,11.6-4.5,11.6-10
				V134.9C536.5,129.4,531.3,124.9,524.8,124.9z"/>
		</g>
	</g>
	<g id="Shape_213">
		<g>
			<path fill="#ECECEC" d="M522.1,122.1H306.3c-6.4,0-11.6,4.5-11.6,10v119.3c0,5.5,5.2,10,11.6,10h215.9c6.4,0,11.6-4.5,11.6-10
				V132.1C533.8,126.6,528.6,122.1,522.1,122.1z"/>
		</g>
	</g>
	<g id="Shape_58_1_" opacity="0.1608">
		<g>
			<path d="M386.4,139h-71.5c-0.7,0-1.2,0.9-1.2,2v69.3c0,1.1,0.6,2,1.2,2h71.5c0.7,0,1.3-0.9,1.3-2V141
				C387.7,140,387.1,139,386.4,139z"/>
		</g>
	</g>
	<path fill="#CDCDCD" d="M515,212.4h-97.4c-2.6,0-4.8,1.8-4.8,4.1s2.1,4.1,4.8,4.1h97.5c2.6,0,4.8-1.8,4.8-4.1
		C519.7,214.2,517.6,212.4,515,212.4 M484.3,233h-66.7c-2.6,0-4.8,1.8-4.8,4.1s2.1,4.1,4.8,4.1h66.7c2.6,0,4.8-1.8,4.8-4.1
		C489,234.8,486.9,233,484.3,233"/>
	<path fill="#FF9800" d="M515,140.3h-97.4c-2.6,0-4.8,1.8-4.8,4.1c0,2.3,2.1,4.1,4.8,4.1h97.5c2.6,0,4.8-1.8,4.8-4.1
		C519.7,142.2,517.6,140.3,515,140.3 M515,159.2h-97.4c-2.6,0-4.8,1.8-4.8,4.1c0,2.3,2.1,4.1,4.8,4.1h97.5c2.6,0,4.8-1.8,4.8-4.1
		C519.8,161.1,517.6,159.2,515,159.2"/>
	<g id="Shape_213_4_">
		<g>
			<path fill="#CDCDCD" d="M502.2,143l-68.5-97.7c-3.2-4.5-10-5.2-15.3-1.5L241.6,167.6c-5.3,3.7-7,10.4-3.8,14.9l68.5,97.8
				c3.2,4.6,10,5.2,15.3,1.5l176.8-123.8C503.7,154.3,505.4,147.6,502.2,143z"/>
		</g>
	</g>
	<g id="Shape_213_2_">
		<g>
			<path fill="#ECECEC" d="M499,141.9l-68.5-97.8c-3.2-4.5-10-5.2-15.3-1.5L238.4,166.4c-5.3,3.7-7,10.4-3.8,14.9l68.5,97.8
				c3.2,4.6,10,5.2,15.3,1.5l176.8-123.8C500.5,153.1,502.1,146.4,499,141.9z"/>
		</g>
	</g>
	<g id="Shape_58_3_" opacity="0.1608">
		<g>
			<path fill="#00838F" d="M343.5,169.8L318,133.4c-0.4-0.6-1.2-0.7-1.8-0.3L255.1,176c-0.6,0.4-0.8,1.2-0.4,1.8l25.4,36.3
				c0.4,0.6,1.2,0.7,1.8,0.3l61.1-42.8C343.7,171.2,343.8,170.3,343.5,169.8z"/>
		</g>
	</g>
	<path fill="#FF9800" d="M365.4,195.4l-68.6,48.1c-1.8,1.3-2.3,3.9-1,5.7c1.3,1.8,3.9,2.3,5.7,1.1l68.6-48.1c1.8-1.3,2.3-3.9,1-5.7
		C369.8,194.5,367.2,194.1,365.4,195.4 M355.5,227.4l-47,32.9c-1.8,1.3-2.3,3.9-1,5.7s3.9,2.3,5.7,1.1l47-32.9
		c1.8-1.3,2.3-3.9,1-5.7S357.4,226.1,355.5,227.4"/>
	<path fill="#CDCDCD" d="M415.6,68.3L347,116.4c-1.8,1.3-2.3,3.9-1,5.7s3.9,2.3,5.7,1.1l68.6-48.1c1.8-1.3,2.3-3.9,1-5.7
		S417.5,67.1,415.6,68.3 M405.8,100.4l-47,32.9c-1.8,1.3-2.3,3.9-1,5.7c1.3,1.8,3.9,2.3,5.7,1.1l47-32.9c1.8-1.3,2.3-3.9,1-5.7
		C410.2,99.6,407.6,99.1,405.8,100.4"/>
</g>
<g>
	<g>
		<g id="Shape_106">
			<g>
				<path fill="#01838F" d="M290.6,334.1h-21.4l-1-3.3c0-3.3-2.6-6.3-6.3-6.3h-17.5c-3.3,0-6.3,2.6-6.3,6.3l-0.4,3.3h-46.6
					l-9.4-30.5c0-3.3-2.6-6.3-6.3-6.3H72.9c-3.3,0-6.3,2.6-6.3,6.3l-8.7,30.5H18.4l-0.7-3.3c0-3.3-2.6-6.3-6.3-6.3h-28.2
					c-3.3,0-6.3,2.6-6.3,6.3l-0.7,3.3H-44c-5.4,0-10,4.3-10,10v191.5c0,5.4,4.3,10,10,10h334.8c5.4,0,10-4.3,10-10V343.8
					C300.6,338.4,296.2,334.1,290.6,334.1z"/>
			</g>
		</g>
	</g>
	<g id="Shape_106_copy">
		<g>
			<path fill="#CECECD" d="M290.6,334.1H-43.9c-5.4,0-10,4.3-10,10v11.4h354.5v-11.4C300.6,338.4,296.2,334.1,290.6,334.1z"/>
		</g>
	</g>
	<g id="Shape_106_copy_2">
		<g>
			<path fill="#F8981D" d="M-53.9,524.9v11.4c0,5.4,4.3,9.7,10,9.7h334.8c5.4,0,10-4.3,10-9.7v-11.4H-53.9z"/>
		</g>
	</g>
	<g id="Shape_62_copy_4">
		<g>
			<path fill="#ECECEC" d="M123.2,366.2c-39.9,0-72.3,32.5-72.3,72.3s32.1,72.3,72.3,72.3c39.9,0,72.3-32.1,72.3-72.3
				S163.3,366.2,123.2,366.2z M123.2,493.4c-30.5,0-54.9-24.7-54.9-54.9c0-30.5,24.7-54.9,54.9-54.9c30.5,0,54.9,24.7,54.9,54.9
				C178.4,468.7,153.6,493.4,123.2,493.4z"/>
		</g>
	</g>
	<g id="Shape_111" opacity="0.3608">
		<g>
			<path fill="#ECECEC" d="M123.9,399.1c-21.1,0-38.2,17.1-38.2,38.2c0,21.1,17.1,38.2,38.2,38.2s38.2-17.1,38.2-38.2
				C162,416.1,144.9,399.1,123.9,399.1z"/>
		</g>
	</g>
	<g id="Shape_110">
		<g>
			<path fill="#ECECEC" d="M164.4,309.6H83.7c-3.3,0-6.3,2.6-6.3,6.3v1.3c0,3.3,2.6,6.3,6.3,6.3h81c3.3,0,6.3-2.6,6.3-6.3V316
				C170.7,312.4,167.7,309.6,164.4,309.6z"/>
		</g>
	</g>
</g>
<g>
	<path fill="#ECECEC" d="M500.7,659c-6.5,0-12.8,1.1-18.7,3c0.3-2.1,0.3-4.1,0.3-6.5c0-48-38.8-87-86.8-87
		c-43.2,0-79.1,31.7-85.9,72.9c-2.1-0.3-4.4-0.3-6.5-0.3c-37.9,0-68.4,30.8-68.4,68.4c0,37.9,30.5,68.4,68.4,68.4c0.9,0,1.8,0,2.6,0
		l0,0h195.5l0,0c32.6-0.3,59-26.9,59-59.5S533.5,659,500.7,659"/>
	<path fill="#F8981D" d="M454.1,745.9c-0.6-1.1-2.1-2.1-3.3-2.1h-28.4v-72.9c0-3.3-2.6-5.9-5.9-5.9h-38.2c-3.3,0-5.9,2.6-5.9,5.9
		v72.9H344c-1.5,0-2.6,0.9-3.3,2.1c-0.3,0.6-0.3,1.1-0.3,1.8c0,0.9,0.3,1.5,0.6,2.1l53.6,76.4c0.6,0.9,1.8,1.5,3,1.5s2.4-0.6,3-1.5
		l53.3-76.4C454.8,748.5,454.8,747,454.1,745.9"/>
</g>
<g>
	<g>
		<path fill="#B6E3EB" d="M124.5,183.2v-14.5H138v14.5H124.5z M151.7,183.2v-14.5h13.6v14.5H151.7z M178.8,183.2v-14.5h13.6v14.5
			H178.8z M205.7,183.2v-14.5h13.6v14.5H205.7z"/>
	</g>
	<g>
		<path fill="#B6E3EB" d="M138.7,288.5h-14.5V275h14.5V288.5z M138.7,261.6h-14.5V248h14.5V261.6z M138.7,234.4h-14.5v-13.6h14.5
			V234.4z M138.7,207.3h-14.5v-13.6h14.5V207.3z"/>
	</g>
</g>
<g>
	<path fill="#B6E3EB" d="M308.3,451.8v-14.5h13.6v14.5H308.3z M335.5,451.8v-14.5h13.6v14.5H335.5z M362.6,451.8v-14.5h13.6v14.5
		H362.6z M389.6,451.8v-14.5h13.6v14.5H389.6z"/>
</g>
<g>
	<path fill="#B6E3EB" d="M404.2,557.1h-14.5v-13.6h14.5V557.1z M404.2,530.2h-14.5v-13.6h14.5V530.2z M404.2,503h-14.5v-13.6h14.5
		V503z M404.2,475.9h-14.5v-13.6h14.5V475.9z"/>
</g>
</svg>
