<?xml version="1.0" encoding="utf-8"?>
<!-- Generator: Adobe Illustrator 18.1.1, SVG Export Plug-In . SVG Version: 6.00 Build 0)  -->
<svg version="1.1" id="Layer_1" xmlns="http://www.w3.org/2000/svg" xmlns:xlink="http://www.w3.org/1999/xlink" x="0px" y="0px"
	 viewBox="0 0 612 792" enable-background="new 0 0 612 792" xml:space="preserve">
<g>
	<g>
		<path fill="#B3E5FC" d="M462.8,391.4h-16.5V376h16.5V391.4z M462.8,360.9h-16.5v-15.4h16.5V360.9z M462.8,329.9h-16.5v-15.4h16.5
			V329.9z M462.8,299h-16.5v-15.4h16.5V299z"/>
	</g>
	<g>
		<path fill="#B3E5FC" d="M353.4,269.8v-16.5h15.4v16.5H353.4z M384.3,269.8v-16.5h15.4v16.5H384.3z M415.1,269.8v-16.5h15.4v16.5
			H415.1z M445.7,269.8v-16.5h15.4v16.5H445.7z"/>
	</g>
	<g>
		<path fill="#B3E5FC" d="M231.6,269.8v-16.5H247v16.5H231.6z M262.5,269.8v-16.5h15.4v16.5H262.5z M293.3,269.8v-16.5h15.4v16.5
			H293.3z M323.9,269.8v-16.5h15.4v16.5H323.9z"/>
	</g>
	<g>
		<path fill="#B3E5FC" d="M111,269.8v-16.5h15.4v16.5H111z M141.9,269.8v-16.5h15.4v16.5H141.9z M172.7,269.8v-16.5h15.4v16.5H172.7
			z M203.3,269.8v-16.5h15.4v16.5H203.3z"/>
	</g>
	<g>
		<path fill="#B3E5FC" d="M462.8,514h-16.5v-15.4h16.5V514z M462.8,483.4h-16.5V468h16.5V483.4z M462.8,452.6h-16.5v-15.4h16.5
			V452.6z M462.8,421.8h-16.5v-15.4h16.5V421.8z"/>
	</g>
</g>
<g>
	<g id="Rounded_Rectangle_34_3_">
		<g>
			<path fill="#F8981D" d="M46.9,207.6H17.5C7.9,207.6,0,215.5,0,225v58.4c0,9.5,7.9,17.5,17.5,17.5h29.4c9.5,0,17.5-7.9,17.5-17.5
				v-58C64.3,215.5,56.8,207.6,46.9,207.6z"/>
		</g>
	</g>
	<g id="Shape_450">
		<g>
			<polygon fill="#01579B" points="69.9,207.2 34.9,207.2 34.9,302.1 69.9,302.1 218.8,389 218.8,119.8 			"/>
		</g>
	</g>
	<g id="Shape_451">
		<g>
			<path fill="#ECECEC" d="M385.6,179.8c-10.7-23.4-26.2-44.9-47.3-63.9c-7.1-6.4-18.7-6.4-25.4,0c-7.1,6.4-6.8,16.7,0,23.4
				c17.5,15.5,30.6,33.8,39.3,52.8c8.7,19.5,13.1,40.5,13.1,61.2c0,40.9-17.1,82.2-51.6,114c-7.1,6.4-6.8,16.7,0,23.4
				c3.6,3.2,7.9,4.8,12.7,4.8c4.8,0,9.1-1.6,12.7-4.8c41.3-38.1,62-87.8,62-137C401.9,228.2,396.4,203.2,385.6,179.8z M311.8,213.1
				c-5.2-11.1-12.7-21.8-23-31c-7.1-6.4-18.7-6.4-25.4,0c-7.1,6.4-6.8,17.1,0,23.4c6.8,6,11.5,12.7,14.7,19.9
				c3.6,7.5,5.2,15.5,5.2,23.4c0,15.5-6.4,30.6-19.1,42.5l0,0c-7.1,6.4-6.8,16.7,0,23.4c3.6,3.2,7.9,4.8,12.7,4.8s9.1-1.6,12.7-4.8
				c19.9-18.3,29.8-42.1,29.8-65.5C319.7,236.9,316.9,224.6,311.8,213.1z"/>
		</g>
	</g>
</g>
<g>
	<path fill="#01579B" d="M463.1,532h-257c-8.3,0-15.1,6.8-15.1,14.7v185.5c0,8.3,6.8,14.7,15.1,14.7h34.6
		c10.7,19.1,25.4,44.9,25.4,44.9s15.1-26.2,25.4-44.9h170.8c8.3,0,15.1-6.8,15.1-14.7V546.8C477.8,538.4,471,532,463.1,532"/>
	<path fill="#ECECEC" d="M594.9,460.1H299.8c-9.5,0-17.1,7.5-17.1,17.1v212.9c0,9.5,7.5,17.1,17.1,17.1h196.6
		c11.9,21.4,29.4,51.6,29.4,51.6s17.1-29.8,29.4-51.6h39.7c9.5,0,17.1-7.5,17.1-17.1V477.2C612,467.8,604.5,460.1,594.9,460.1"/>
	<path fill="#F8981D" d="M346.7,543.9h202.1c5.6,0,9.9-4.4,9.9-9.9s-4.4-9.9-9.9-9.9H346.7c-5.6,0-9.9,4.4-9.9,9.9
		S341.5,543.9,346.7,543.9 M548.9,573.3H346.7c-5.6,0-9.9,4.4-9.9,9.9c0,5.6,4.4,9.9,9.9,9.9h202.1c5.6,0,9.9-4.4,9.9-9.9
		C558.8,577.8,554.4,573.3,548.9,573.3 M484.9,622.2H346.7c-5.6,0-9.9,4.4-9.9,9.9s4.4,9.9,9.9,9.9h138.2c5.6,0,9.9-4.4,9.9-9.9
		C494.8,626.6,490.5,622.2,484.9,622.2"/>
</g>
</svg>
