<?xml version="1.0" encoding="utf-8"?>
<!-- Generator: Adobe Illustrator 18.1.1, SVG Export Plug-In . SVG Version: 6.00 Build 0)  -->
<svg version="1.1" id="Layer_1" xmlns="http://www.w3.org/2000/svg" xmlns:xlink="http://www.w3.org/1999/xlink" x="0px" y="0px"
	 viewBox="71.4 21.5 118.2 131.5" enable-background="new 71.4 21.5 118.2 131.5" xml:space="preserve">
<g>
	<g>
		<path fill="#B3E5FC" d="M160.8,75.6h-3.2v-3h3.2V75.6z M160.8,69.7h-3.2v-3h3.2V69.7z M160.8,63.7h-3.2v-3h3.2V63.7z M160.8,57.8
			h-3.2v-3h3.2V57.8z"/>
	</g>
	<g>
		<path fill="#B3E5FC" d="M139.7,52.1v-3.2h3v3.2H139.7z M145.6,52.1v-3.2h3v3.2H145.6z M151.6,52.1v-3.2h3v3.2H151.6z M157.5,52.1
			v-3.2h3v3.2H157.5z"/>
	</g>
	<g>
		<path fill="#B3E5FC" d="M116.1,52.1v-3.2h3v3.2H116.1z M122.1,52.1v-3.2h3v3.2H122.1z M128,52.1v-3.2h3v3.2H128z M134,52.1v-3.2h3
			v3.2H134z"/>
	</g>
	<g>
		<path fill="#B3E5FC" d="M92.8,52.1v-3.2h3v3.2H92.8z M98.8,52.1v-3.2h3v3.2H98.8z M104.7,52.1v-3.2h3v3.2H104.7z M110.7,52.1v-3.2
			h3v3.2H110.7z"/>
	</g>
	<g>
		<path fill="#B3E5FC" d="M160.8,99.3h-3.2v-3h3.2V99.3z M160.8,93.4h-3.2v-3h3.2V93.4z M160.8,87.4h-3.2v-3h3.2V87.4z M160.8,81.5
			h-3.2v-3h3.2V81.5z"/>
	</g>
</g>
<g>
	<g id="Rounded_Rectangle_34_3_">
		<g>
			<path fill="#F8981D" d="M80.4,40.1h-5.7c-1.9,0-3.4,1.5-3.4,3.4v11.3c0,1.8,1.5,3.4,3.4,3.4h5.7c1.8,0,3.4-1.5,3.4-3.4V43.5
				C83.8,41.6,82.4,40.1,80.4,40.1z"/>
		</g>
	</g>
	<g id="Shape_450">
		<g>
			<polygon fill="#0288D1" points="84.9,40 78.1,40 78.1,58.4 84.9,58.4 113.7,75.1 113.7,23.1 			"/>
		</g>
	</g>
	<g id="Shape_451">
		<g>
			<path fill="#ECECEC" d="M145.9,34.7c-2.1-4.5-5.1-8.7-9.1-12.3c-1.4-1.2-3.6-1.2-4.9,0c-1.4,1.2-1.3,3.2,0,4.5
				c3.4,3,5.9,6.5,7.6,10.2c1.7,3.8,2.5,7.8,2.5,11.8c0,7.9-3.3,15.9-10,22c-1.4,1.2-1.3,3.2,0,4.5c0.7,0.6,1.5,0.9,2.5,0.9
				c0.9,0,1.8-0.3,2.5-0.9c8-7.4,12-17,12-26.5C149,44.1,148,39.3,145.9,34.7z M131.6,41.2c-1-2.1-2.5-4.2-4.4-6
				c-1.4-1.2-3.6-1.2-4.9,0c-1.4,1.2-1.3,3.3,0,4.5c1.3,1.2,2.2,2.5,2.8,3.8c0.7,1.4,1,3,1,4.5c0,3-1.2,5.9-3.7,8.2l0,0
				c-1.4,1.2-1.3,3.2,0,4.5c0.7,0.6,1.5,0.9,2.5,0.9s1.8-0.3,2.5-0.9c3.8-3.5,5.8-8.1,5.8-12.7C133.1,45.8,132.6,43.4,131.6,41.2z"
				/>
		</g>
	</g>
</g>
<g>
	<path fill="#0288D1" d="M160.8,102.8h-49.6c-1.6,0-2.9,1.3-2.9,2.8v35.8c0,1.6,1.3,2.8,2.9,2.8h6.7c2.1,3.7,4.9,8.7,4.9,8.7
		s2.9-5.1,4.9-8.7h33c1.6,0,2.9-1.3,2.9-2.8v-35.8C163.7,104,162.4,102.8,160.8,102.8"/>
	<path fill="#ECECEC" d="M186.3,88.9h-57c-1.8,0-3.3,1.4-3.3,3.3v41.1c0,1.8,1.4,3.3,3.3,3.3h38c2.3,4.1,5.7,10,5.7,10
		s3.3-5.8,5.7-10h7.7c1.8,0,3.3-1.4,3.3-3.3V92.2C189.6,90.4,188.2,88.9,186.3,88.9"/>
	<path fill="#F8981D" d="M138.4,105.1h39c1.1,0,1.9-0.9,1.9-1.9s-0.9-1.9-1.9-1.9h-39c-1.1,0-1.9,0.9-1.9,1.9
		S137.4,105.1,138.4,105.1 M177.4,110.8h-39.1c-1.1,0-1.9,0.9-1.9,1.9c0,1.1,0.8,1.9,1.9,1.9h39c1.1,0,1.9-0.9,1.9-1.9
		C179.3,111.6,178.5,110.8,177.4,110.8 M165.1,120.2h-26.7c-1.1,0-1.9,0.9-1.9,1.9s0.8,1.9,1.9,1.9h26.7c1.1,0,1.9-0.9,1.9-1.9
		C167,121,166.1,120.2,165.1,120.2"/>
</g>
</svg>
