<?xml version="1.0" encoding="utf-8"?>
<!-- Generator: Adobe Illustrator 18.1.1, SVG Export Plug-In . SVG Version: 6.00 Build 0)  -->
<svg version="1.1" id="Layer_1" xmlns="http://www.w3.org/2000/svg" xmlns:xlink="http://www.w3.org/1999/xlink" x="0px" y="0px"
	 viewBox="0 55.5 612 680.7" enable-background="new 0 55.5 612 680.7" xml:space="preserve">
<g>
	<g>
		<path fill="#B6E3EB" d="M462.8,335.8h-16.5v-15.4h16.5V335.8z M462.8,305.2h-16.5v-15.4h16.5V305.2z M462.8,274.3h-16.5v-15.4
			h16.5V274.3z M462.8,243.4h-16.5V228h16.5V243.4z"/>
	</g>
	<g>
		<path fill="#B6E3EB" d="M353.4,214.1v-16.5h15.4v16.5H353.4z M384.3,214.1v-16.5h15.4v16.5H384.3z M415.1,214.1v-16.5h15.4v16.5
			H415.1z M445.7,214.1v-16.5h15.4v16.5H445.7z"/>
	</g>
	<g>
		<path fill="#B6E3EB" d="M231.6,214.1v-16.5H247v16.5H231.6z M262.5,214.1v-16.5h15.4v16.5H262.5z M293.3,214.1v-16.5h15.4v16.5
			H293.3z M323.9,214.1v-16.5h15.4v16.5H323.9z"/>
	</g>
	<g>
		<path fill="#B6E3EB" d="M111,214.1v-16.5h15.4v16.5H111z M141.9,214.1v-16.5h15.4v16.5H141.9z M172.7,214.1v-16.5h15.4v16.5H172.7
			z M203.3,214.1v-16.5h15.4v16.5H203.3z"/>
	</g>
	<g>
		<path fill="#B6E3EB" d="M462.8,458.4h-16.5V443h16.5V458.4z M462.8,427.8h-16.5v-15.4h16.5V427.8z M462.8,397h-16.5v-15.4h16.5
			V397z M462.8,366.1h-16.5v-15.4h16.5V366.1z"/>
	</g>
</g>
<g>
	<g id="Rounded_Rectangle_34_3_">
		<g>
			<path fill="#F8981D" d="M46.9,152H17.5C7.9,152,0,159.9,0,169.4v58.4c0,9.5,7.9,17.5,17.5,17.5h29.4c9.5,0,17.5-7.9,17.5-17.5
				v-58C64.3,159.9,56.8,152,46.9,152z"/>
		</g>
	</g>
	<g id="Shape_450">
		<g>
			<polygon fill="#01838F" points="69.9,151.6 34.9,151.6 34.9,246.5 69.9,246.5 218.8,333.4 218.8,64.2 			"/>
		</g>
	</g>
	<g id="Shape_451">
		<g>
			<path fill="#ECECEC" d="M385.6,124.2c-10.7-23.4-26.2-44.9-47.3-63.9c-7.1-6.4-18.7-6.4-25.4,0c-7.1,6.4-6.8,16.7,0,23.4
				c17.5,15.5,30.6,33.8,39.3,52.8c8.7,19.5,13.1,40.5,13.1,61.2c0,40.9-17.1,82.2-51.6,114c-7.1,6.4-6.8,16.7,0,23.4
				c3.6,3.2,7.9,4.8,12.7,4.8c4.8,0,9.1-1.6,12.7-4.8c41.3-38.1,62-87.8,62-137C401.9,172.6,396.4,147.6,385.6,124.2z M311.8,157.5
				c-5.2-11.1-12.7-21.8-23-31c-7.1-6.4-18.7-6.4-25.4,0c-7.1,6.4-6.8,17.1,0,23.4c6.8,6,11.5,12.7,14.7,19.9
				c3.6,7.5,5.2,15.5,5.2,23.4c0,15.5-6.4,30.6-19.1,42.5l0,0c-7.1,6.4-6.8,16.7,0,23.4c3.6,3.2,7.9,4.8,12.7,4.8s9.1-1.6,12.7-4.8
				c19.9-18.3,29.8-42.1,29.8-65.5C319.7,181.3,316.9,169,311.8,157.5z"/>
		</g>
	</g>
</g>
<g>
	<path fill="#01838F" d="M463.1,476.4h-257c-8.3,0-15.1,6.8-15.1,14.7v185.5c0,8.3,6.8,14.7,15.1,14.7h34.6
		c10.7,19.1,25.4,44.9,25.4,44.9s15.1-26.2,25.4-44.9h170.8c8.3,0,15.1-6.8,15.1-14.7V491.1C477.8,482.8,471,476.4,463.1,476.4"/>
	<path fill="#ECECEC" d="M594.9,404.5H299.8c-9.5,0-17.1,7.5-17.1,17.1v212.9c0,9.5,7.5,17.1,17.1,17.1h196.6
		c11.9,21.4,29.4,51.6,29.4,51.6s17.1-29.8,29.4-51.6h39.7c9.5,0,17.1-7.5,17.1-17.1V421.6C612,412.1,604.5,404.5,594.9,404.5"/>
	<path fill="#F8981D" d="M346.7,488.3h202.1c5.6,0,9.9-4.4,9.9-9.9s-4.4-9.9-9.9-9.9H346.7c-5.6,0-9.9,4.4-9.9,9.9
		S341.5,488.3,346.7,488.3 M548.9,517.7H346.7c-5.6,0-9.9,4.4-9.9,9.9c0,5.6,4.4,9.9,9.9,9.9h202.1c5.6,0,9.9-4.4,9.9-9.9
		C558.8,522.1,554.4,517.7,548.9,517.7 M484.9,566.6H346.7c-5.6,0-9.9,4.4-9.9,9.9s4.4,9.9,9.9,9.9h138.2c5.6,0,9.9-4.4,9.9-9.9
		C494.8,570.9,490.5,566.6,484.9,566.6"/>
</g>
</svg>
