<?xml version="1.0" encoding="utf-8"?>
<!-- Generator: Adobe Illustrator 18.1.1, SVG Export Plug-In . SVG Version: 6.00 Build 0)  -->
<svg version="1.1" id="Layer_1" xmlns="http://www.w3.org/2000/svg" xmlns:xlink="http://www.w3.org/1999/xlink" x="0px" y="0px"
	 viewBox="0 0 304.3 129.8" enable-background="new 0 0 304.3 129.8" xml:space="preserve">
<g>
	<g>
		<path fill="#FFFFFF" d="M129.7,1.8c1.7-1.6,4.2-1.8,6.5-1.8c16.8,0,33.7,0,50.5,0c2.2,0,4.5-0.2,6.7,0.5c3.1,1,4.9,4.3,4.8,7.5
			c0,4.4,0,8.8,0,13.1c2.1,1.4,4.2,2.8,6.3,4.2c0.5,0.4,1.2,0.9,1.2,1.6c0,0.8-0.6,1.4-1.1,1.9c-2.1,1.8-4.2,3.5-6.4,5.3
			c0,4.3,0,8.6,0,12.9c0,2.1-0.6,4.3-2.2,5.7c-1.5,1.6-3.8,2.2-6,2.1c-5.1,0-10.2,0-15.2,0c0,3.2,0,6.4,0,9.6
			c-0.1,1.6-2.3,2.4-3.4,1.2c-0.9-0.7-0.7-2-0.7-3.1c0-2.6,0.1-5.2-0.1-7.8c-4.3,0-8.5,0-12.8,0c0,3.2,0,6.3,0,9.5
			c0,1.2-1.2,2.2-2.3,2c-0.9-0.1-1.7-0.9-1.8-1.8c-0.1-3.2,0.1-6.5-0.1-9.7c-6.1,0-12.3,0-18.4,0c-2.2,0-4.7-0.7-6.1-2.6
			c-1.4-1.8-1.7-4.2-1.6-6.3c0-3,0-6,0-9l-0.1-0.2c-2.8-1.5-5.4-3.3-8.1-5.1c-1.9-1.3-3.7-2.9-5.3-4.6c4.3-2.9,8.7-5.7,13.5-7.7
			c0-3.8,0-7.7,0-11.5C127.4,5.6,128.1,3.3,129.7,1.8z M132.7,5.1c-0.9,0.8-1.2,2-1.2,3.1c0,3.1,0,6.1,0,9.2
			c1.7-0.5,3.4-1.1,5.1-1.5c5.3-1.3,11.2-1.6,16.3,0.5c2.8,1.2,5.5,2.8,7.5,5.1c2.2,2.6,3.1,6.3,2.3,9.7c-0.8,3.1-3.1,5.5-5.6,7.2
			c-3.4,2.3-7.7,3.2-11.7,3.1c-4.8,0.1-9.5-1.2-13.9-2.9c0,2.6,0,5.2,0,7.8c0,1,0.2,2.1,0.8,2.9c0.7,0.9,1.9,1.2,2.9,1.2
			c17.7,0,35.3,0,53,0c1.4,0,2.9,0.2,4.2-0.6c1.2-0.6,1.4-2.1,1.5-3.3c0-12.8,0-25.6,0-38.4c0-1.1-0.2-2.4-1-3.2
			c-1-0.9-2.5-0.9-3.7-0.9c-17.6,0-35.2,0-52.7,0C135.2,4.2,133.7,4.2,132.7,5.1z M131.5,22c-3.7,1.6-7.4,3.3-10.8,5.5
			c2.4,1.9,5,3.4,7.6,5.1c4.5,2.4,9.5,4.1,14.6,4.7c4,0.4,8.3,0.1,11.7-2.2c1.9-1.3,3.8-3.1,4.2-5.5c0.4-2.2-0.6-4.4-2.1-5.9
			c-2.5-2.6-6.1-4-9.6-4.4C141.8,18.6,136.4,19.9,131.5,22z"/>
	</g>
	<path fill="#FFFFFF" d="M177.7,11.9c1.5-0.4,3.3-0.1,4.2,1.2c1.3,1.5,1,4-0.6,5.2c-1.5,1.3-4.1,1-5.3-0.7
		C174.6,15.8,175.4,12.5,177.7,11.9z"/>
	<path fill="#FFFFFF" d="M221.7,70.2c1-0.3,2.1-0.3,3,0.1c1.2,0.7,1.2,2.4,0.9,3.6c-0.4,1.3-1.9,1.7-3.1,1.4
		c-1.2-0.1-1.9-1.3-1.9-2.4C220.4,71.8,220.7,70.6,221.7,70.2z"/>
	<g>
		<path fill="#FFFFFF" d="M153.4,74.2c-0.2-1.4,1.2-2.6,2.5-2.5c1.2-0.1,2.2,1.1,2.2,2.2c0,11.4,0,22.9,0,34.3
			c0.1,5.1-0.2,10.7-3.5,14.9c-2.3,3-5.7,5-9.3,5.9c-3.1,0.9-6.3,0.9-9.4,0.8c-4.5-0.3-9-2-12.2-5.2c-3.8-3.6-5.3-9-5.6-14
			c-0.3-5.3,0-10.7,2.2-15.6c1.9-4.1,5.5-7.4,9.8-8.8c3.9-1.4,8.2-1.6,12.3-1c4.2,0.6,8.1,2.8,10.9,6.1
			C153.4,85.5,153.4,79.8,153.4,74.2z M135.2,89.1c-2.3,0.3-4.6,1.1-6.6,2.5c-2.7,2-4.3,5.1-5,8.4c-0.9,3.9-0.9,8-0.5,12
			c0.5,4,1.8,8.3,5.1,10.8c3.5,2.8,8.2,3.2,12.4,2.9c3.1-0.3,6.3-1.1,8.6-3.3c2.9-2.6,4.2-6.5,4.1-10.3c0-4.5,0.1-9.1,0-13.6
			c-1.3-3.1-3.6-5.8-6.5-7.5C143.4,88.8,139.1,88.6,135.2,89.1z"/>
	</g>
	<g>
		<path fill="#FFFFFF" d="M170.5,73.9c-0.1-1.2,1-2.3,2.3-2.2c1.3-0.2,2.4,1,2.3,2.2c0,5.8,0,11.7,0,17.5c2.9-3.3,6.9-5.7,11.3-6.3
			c5-0.7,10.4-0.2,14.8,2.3c3.5,1.9,6.1,5,7.5,8.7c2.1,5.7,2.3,11.9,1.3,17.8c-0.9,4.3-2.7,8.5-6.1,11.4c-3.7,3.3-8.8,4.5-13.6,4.4
			c-3.7,0.1-7.5-0.5-10.9-2.2c-3.6-1.8-6.4-5-7.8-8.8c-0.9-2.4-1.2-5-1.2-7.6C170.5,98.8,170.4,86.3,170.5,73.9z M186.5,89.2
			c-4.7,0.8-8.6,4.2-10.8,8.3c-0.3,0.5-0.7,1-0.7,1.6c0,4.1,0,8.2,0,12.4c0.1,2.5,0.4,5,1.4,7.2c1,2.1,2.6,3.8,4.6,5
			c3.2,1.8,7.1,2.1,10.7,1.9c3.5-0.3,7.1-1.3,9.6-3.9c2.7-2.8,3.8-6.8,4.1-10.6c0.4-4.3,0.3-8.8-1.1-13c-0.9-2.8-2.6-5.4-5.1-7
			C195.6,88.8,190.9,88.5,186.5,89.2z"/>
	</g>
	<g>
		<path fill="#FFFFFF" d="M299.7,73.9c-0.1-1.2,1.1-2.4,2.3-2.2c1.2-0.1,2.4,1,2.3,2.2c0,11.8,0,23.6,0,35.4c0.1,3,0,6.1-1,9
			c-1.2,4-4.2,7.4-8,9.3c-3.4,1.6-7.2,2.3-10.9,2.2c-3.4,0.1-6.8-0.6-9.9-2c-3.8-1.9-6.9-5.2-8.4-9.1c-1.7-4.5-2-9.5-1.7-14.2
			c0.3-4.5,1.3-9.2,4.3-12.8c3-3.7,7.6-6,12.3-6.5c4.7-0.5,9.8-0.2,14,2.3c1.8,1,3.3,2.5,4.7,3.9C299.7,85.4,299.7,79.7,299.7,73.9z
			 M280.7,89.2c-2.9,0.5-5.7,1.8-7.7,4c-2.8,3.2-3.6,7.6-3.9,11.7c-0.2,4.8,0.1,9.9,2.3,14.2c1.7,3.3,5.1,5.4,8.7,6.1
			c3.7,0.7,7.6,0.6,11.2-0.5c2.6-0.8,4.9-2.7,6.3-5c1.5-2.3,1.9-5.1,2-7.7c0-4.3,0-8.6,0-12.9c0-0.6-0.2-1.1-0.5-1.6
			c-1-1.9-2.3-3.7-4-5.1c-1.2-1-2.6-1.8-4.1-2.5C287.9,88.7,284.2,88.6,280.7,89.2z"/>
	</g>
	<path fill="#FFFFFF" d="M10.6,86.7c4-1.8,8.5-2.1,12.8-1.7c4.4,0.4,8.8,2.2,11.6,5.6c0.5,0.6,1.2,1.4,1,2.3
		c-0.3,1.4-2.1,2.3-3.3,1.4c-1-0.9-1.7-2-2.8-2.7c-2.7-2.1-6.2-2.7-9.6-2.6c-4.2-0.1-8.7,1-11.5,4.3c-3.2,3.7-3.8,8.8-3.9,13.4
		c0,4.8,0.4,9.9,3.2,13.9c2.3,3.3,6.3,4.9,10.1,5.2c3.1,0.1,6.3,0.1,9.3-1c2-0.8,3.9-1.9,5.6-3.2c1-0.9,2.9-0.3,3.2,1
		c0.3,0.8-0.1,1.7-0.8,2.2c-3.7,2.9-8.2,4.8-13,5c-2.6,0-5.3,0.2-7.9-0.5c-4.5-0.9-8.6-3.6-11.1-7.5c-2.6-4-3.3-8.8-3.5-13.4v-2.2
		c0.1-3.6,0.6-7.2,2-10.5C3.6,91.7,6.7,88.4,10.6,86.7z"/>
	<g>
		<path fill="#FFFFFF" d="M54.2,86.3c3.2-1.4,6.8-1.7,10.3-1.5c3.5,0.2,7.1,1,9.9,3c3.5,2.6,5.6,7,5.6,11.3c0,9.2,0,18.5,0,27.7
			c0,0.7-0.1,1.5-0.7,1.9c-1.1,0.9-3.1,0.5-3.5-1c-0.2-1.2-0.1-2.4-0.1-3.6c-3.2,3.2-7.6,4.8-12,5.3c-4,0.4-8,0.1-11.8-1.1
			c-3.4-1.1-6.5-3.5-7.9-6.9c-1.3-3.1-1.3-6.7-0.1-9.8c1.1-2.8,3.5-4.8,6.1-6.2c3.3-1.8,7.2-2.4,11-2.4c4.9-0.1,9.9,0,14.8,0
			c0-2.5,0.2-5.2-0.7-7.6c-1-2.7-3.3-4.7-5.9-5.6c-2.8-1-5.8-1.1-8.7-1c-1.7,0.1-3.4,0.4-5,1.2c-2.3,1-3.9,2.9-5.4,4.8
			c-0.7,1.3-2.7,1.5-3.6,0.4c-0.7-0.7-0.7-1.8-0.1-2.6C48.2,89.8,50.9,87.5,54.2,86.3z M56.6,107.5c-2.2,0.5-4.3,1.3-6,2.7
			c-2.9,2.3-3.5,6.7-2.1,10c1.2,2.5,3.7,4.2,6.3,4.9c4.4,1.1,9.2,0.9,13.5-0.7c3.6-1.4,6.7-4.6,7.3-8.6c0.4-2.9,0.1-5.8,0.2-8.8
			c-3.3,0-6.6,0-9.9,0C62.8,107.1,59.7,106.9,56.6,107.5z"/>
	</g>
	<path fill="#FFFFFF" d="M102.1,87.3c3.1-1.7,6.7-2.4,10.3-2.4c1.3-0.1,2.5,1.4,1.9,2.7c-0.3,0.9-1.2,1.4-2.2,1.4
		c-2.7,0.1-5.5,0.5-7.9,1.8c-3.4,2-5.9,5.4-6.8,9.1c-1,3.4-0.7,7-0.8,10.5c0,5.6,0,11.2,0,16.8c0.1,1.5-1.6,2.6-2.9,2.1
		c-0.9-0.3-1.7-1.2-1.6-2.2c0-13.2,0-26.4,0-39.5c-0.1-1,0.7-2,1.6-2.2c1.2-0.4,2.8,0.4,2.9,1.7c0.1,1.7,0,3.5,0.1,5.2
		C98.1,90.4,99.9,88.5,102.1,87.3z"/>
	<path fill="#FFFFFF" d="M246.2,88.7c3.5-2.8,8-3.9,12.4-3.7c1.2,0,2.4,1.4,1.8,2.6c-0.4,0.9-1.4,1.5-2.3,1.4
		c-3.3,0.1-6.8,0.8-9.4,3c-3.1,2.3-4.9,5.9-5.5,9.7c-0.5,2.6-0.3,5.3-0.4,8c0,6,0,11.9,0,17.9c-0.1,1.8-2.5,2.6-3.8,1.4
		c-0.6-0.5-0.9-1.2-0.8-2c0-13.1,0-26.2,0-39.3c-0.2-1.5,1.5-2.6,2.8-2.3c0.9,0.2,1.7,1,1.8,2c0,1.7,0,3.3,0,5
		C243.9,91,244.9,89.7,246.2,88.7z"/>
	<path fill="#FFFFFF" d="M222,85.6c1.4-0.8,3.4,0.2,3.4,1.8c0,13.3,0,26.5,0,39.8c0,1.2-1,2.2-2.2,2.2c-1.2,0.1-2.4-1-2.4-2.2
		c0-13.2,0-26.4,0-39.6C220.7,86.8,221.2,85.9,222,85.6z"/>
</g>
</svg>
