<?xml version="1.0" encoding="utf-8"?>
<!-- Generator: Adobe Illustrator 18.1.1, SVG Export Plug-In . SVG Version: 6.00 Build 0)  -->
<svg version="1.1" id="Layer_1" xmlns="http://www.w3.org/2000/svg" xmlns:xlink="http://www.w3.org/1999/xlink" x="0px" y="0px"
	 viewBox="0 0 421.9 60.5" enable-background="new 0 0 421.9 60.5" xml:space="preserve">
<g>
	<path fill="#FFFFFF" d="M339.2,0.2c1-0.3,2.1-0.3,3,0.1c1.2,0.7,1.2,2.4,0.9,3.6c-0.4,1.3-1.9,1.7-3.1,1.4
		c-1.2-0.1-1.9-1.3-1.9-2.4C338,1.9,338.2,0.6,339.2,0.2z"/>
	<g>
		<path fill="#FFFFFF" d="M271,4.2c-0.2-1.4,1.2-2.6,2.5-2.5c1.2-0.1,2.2,1.1,2.2,2.2c0,11.4,0,22.9,0,34.3
			c0.1,5.1-0.2,10.7-3.5,14.9c-2.3,3-5.7,5-9.3,5.9c-3.1,0.9-6.3,0.9-9.4,0.8c-4.5-0.3-9-2-12.2-5.2c-3.8-3.6-5.3-9-5.6-14
			c-0.3-5.3,0-10.7,2.2-15.6c1.9-4.1,5.5-7.4,9.8-8.8c3.9-1.4,8.2-1.6,12.3-1c4.2,0.6,8.1,2.8,10.9,6.1C271,15.5,271,9.9,271,4.2z
			 M252.7,19.1c-2.3,0.3-4.6,1.1-6.6,2.5c-2.7,2-4.3,5.1-5,8.4c-0.9,3.9-0.9,8-0.5,12c0.5,4,1.8,8.3,5.1,10.8
			c3.5,2.8,8.2,3.2,12.4,2.9c3.1-0.3,6.3-1.1,8.6-3.3c2.9-2.6,4.2-6.5,4.1-10.3c0-4.5,0.1-9.1,0-13.6c-1.3-3.1-3.6-5.8-6.5-7.5
			C260.9,18.9,256.7,18.6,252.7,19.1z"/>
	</g>
	<g>
		<path fill="#FFFFFF" d="M288,3.9c-0.1-1.2,1-2.3,2.3-2.2c1.3-0.2,2.4,1,2.3,2.2c0,5.8,0,11.7,0,17.5c2.9-3.3,6.9-5.7,11.3-6.3
			c5-0.7,10.4-0.2,14.8,2.3c3.5,1.9,6.1,5,7.5,8.7c2.1,5.7,2.3,11.9,1.3,17.8c-0.9,4.3-2.7,8.5-6.1,11.4c-3.7,3.3-8.8,4.5-13.6,4.4
			c-3.7,0.1-7.5-0.5-10.9-2.2c-3.6-1.8-6.4-5-7.8-8.8c-0.9-2.4-1.2-5-1.2-7.6C288,28.8,288,16.4,288,3.9z M304.1,19.2
			c-4.7,0.8-8.6,4.2-10.8,8.3c-0.3,0.5-0.7,1-0.7,1.6c0,4.1,0,8.2,0,12.4c0.1,2.5,0.4,5,1.4,7.2c1,2.1,2.6,3.8,4.6,5
			c3.2,1.8,7.1,2.1,10.7,1.9c3.5-0.3,7.1-1.3,9.6-3.9c2.7-2.8,3.8-6.8,4.1-10.6c0.4-4.3,0.3-8.8-1.1-13c-0.9-2.8-2.6-5.4-5.1-7
			C313.1,18.8,308.4,18.5,304.1,19.2z"/>
	</g>
	<g>
		<path fill="#FFFFFF" d="M417.2,3.9c-0.1-1.2,1.1-2.4,2.3-2.2c1.2-0.1,2.4,1,2.3,2.2c0,11.8,0,23.6,0,35.4c0.1,3,0,6.1-1,9
			c-1.2,4-4.2,7.4-8,9.3c-3.4,1.6-7.2,2.3-10.9,2.2c-3.4,0.1-6.8-0.6-9.9-2c-3.8-1.9-6.9-5.2-8.4-9.1c-1.7-4.5-2-9.5-1.7-14.2
			c0.3-4.5,1.3-9.2,4.3-12.8c3-3.7,7.6-6,12.3-6.5c4.7-0.5,9.8-0.2,14,2.3c1.8,1,3.3,2.5,4.7,3.9C417.3,15.5,417.2,9.7,417.2,3.9z
			 M398.3,19.2c-2.9,0.5-5.7,1.8-7.7,4c-2.8,3.2-3.6,7.6-3.9,11.7c-0.2,4.8,0.1,9.9,2.3,14.2c1.7,3.3,5.1,5.4,8.7,6.1
			c3.7,0.7,7.6,0.6,11.2-0.5c2.6-0.8,4.9-2.7,6.3-5c1.5-2.3,1.9-5.1,2-7.7c0-4.3,0-8.6,0-12.9c0-0.6-0.2-1.1-0.5-1.6
			c-1-1.9-2.3-3.7-4-5.1c-1.2-1-2.6-1.8-4.1-2.5C405.4,18.7,401.7,18.7,398.3,19.2z"/>
	</g>
	<path fill="#FFFFFF" d="M128.2,16.7c4-1.8,8.5-2.1,12.8-1.7c4.4,0.4,8.8,2.2,11.6,5.6c0.5,0.6,1.2,1.4,1,2.3
		c-0.3,1.4-2.1,2.3-3.3,1.4c-1-0.9-1.7-2-2.8-2.7c-2.7-2.1-6.2-2.7-9.6-2.6c-4.2-0.1-8.7,1-11.5,4.3c-3.2,3.7-3.8,8.8-3.9,13.4
		c0,4.8,0.4,9.9,3.2,13.9c2.3,3.3,6.3,4.9,10.1,5.2c3.1,0.1,6.3,0.1,9.3-1c2-0.8,3.9-1.9,5.6-3.2c1-0.9,2.9-0.3,3.2,1
		c0.3,0.8-0.1,1.7-0.8,2.2c-3.7,2.9-8.2,4.8-13,5c-2.6,0-5.3,0.2-7.9-0.5c-4.5-0.9-8.6-3.6-11.1-7.5c-2.6-4-3.3-8.8-3.5-13.4v-2.2
		c0.1-3.6,0.6-7.2,2-10.5C121.1,21.7,124.3,18.5,128.2,16.7z"/>
	<g>
		<path fill="#FFFFFF" d="M171.7,16.4c3.2-1.4,6.8-1.7,10.3-1.5c3.5,0.2,7.1,1,9.9,3c3.5,2.6,5.6,7,5.6,11.3c0,9.2,0,18.5,0,27.7
			c0,0.7-0.1,1.5-0.7,1.9c-1.1,0.9-3.1,0.5-3.5-1c-0.2-1.2-0.1-2.4-0.1-3.6c-3.2,3.2-7.6,4.8-12,5.3c-4,0.4-8,0.1-11.8-1.1
			c-3.4-1.1-6.5-3.5-7.9-6.9c-1.3-3.1-1.3-6.7-0.1-9.8c1.1-2.8,3.5-4.8,6.1-6.2c3.3-1.8,7.2-2.4,11-2.4c4.9-0.1,9.9,0,14.8,0
			c0-2.5,0.2-5.2-0.7-7.6c-1-2.7-3.3-4.7-5.9-5.6c-2.8-1-5.8-1.1-8.7-1c-1.7,0.1-3.4,0.4-5,1.2c-2.3,1-3.9,2.9-5.4,4.8
			c-0.7,1.3-2.7,1.5-3.6,0.4c-0.7-0.7-0.7-1.8-0.1-2.6C165.7,19.8,168.5,17.5,171.7,16.4z M174.1,37.5c-2.2,0.5-4.3,1.3-6,2.7
			c-2.9,2.3-3.5,6.7-2.1,10c1.2,2.5,3.7,4.2,6.3,4.9c4.4,1.1,9.2,0.9,13.5-0.7c3.6-1.4,6.7-4.6,7.3-8.6c0.4-2.9,0.1-5.8,0.2-8.8
			c-3.3,0-6.6,0-9.9,0C180.3,37.1,177.2,36.9,174.1,37.5z"/>
	</g>
	<path fill="#FFFFFF" d="M219.6,17.3c3.1-1.7,6.7-2.4,10.3-2.4c1.3-0.1,2.5,1.4,1.9,2.7c-0.3,0.9-1.2,1.4-2.2,1.4
		c-2.7,0.1-5.5,0.5-7.9,1.8c-3.4,2-5.9,5.4-6.8,9.1c-1,3.4-0.7,7-0.8,10.5c0,5.6,0,11.2,0,16.8c0.1,1.5-1.6,2.6-2.9,2.1
		c-0.9-0.3-1.7-1.2-1.6-2.2c0-13.2,0-26.4,0-39.5c-0.1-1,0.7-2,1.6-2.2c1.2-0.4,2.8,0.4,2.9,1.7c0.1,1.7,0,3.5,0.1,5.2
		C215.7,20.4,217.4,18.5,219.6,17.3z"/>
	<path fill="#FFFFFF" d="M363.8,18.7c3.5-2.8,8-3.9,12.4-3.7c1.2,0,2.4,1.4,1.8,2.6c-0.4,0.9-1.4,1.5-2.3,1.4
		c-3.3,0.1-6.8,0.8-9.4,3c-3.1,2.3-4.9,5.9-5.5,9.7c-0.5,2.6-0.3,5.3-0.4,8c0,6,0,11.9,0,17.9c-0.1,1.8-2.5,2.6-3.8,1.4
		c-0.6-0.5-0.9-1.2-0.8-2c0-13.1,0-26.2,0-39.3c-0.2-1.5,1.5-2.6,2.8-2.3c0.9,0.2,1.7,1,1.8,2c0,1.7,0,3.3,0,5
		C361.4,21.1,362.5,19.7,363.8,18.7z"/>
	<path fill="#FFFFFF" d="M339.5,15.6c1.4-0.8,3.4,0.2,3.4,1.8c0,13.3,0,26.5,0,39.8c0,1.2-1,2.2-2.2,2.2c-1.2,0.1-2.4-1-2.4-2.2
		c0-13.2,0-26.4,0-39.6C338.3,16.8,338.8,16,339.5,15.6z"/>
</g>
<path fill="#FFFFFF" d="M450.9,61.5"/>
<g>
	<g>
		<g>
			<path fill="#FFFFFF" d="M36.8,4.6C38.3,3.3,40.4,3,42.4,3c14.7,0,29.1,0,43.9,0c1.9,0,3.9-0.2,5.8,0.5c2.7,0.8,4.3,3.7,4.2,6.5
				c0,3.8,0,7.6,0,11.4c1.8,1.2,3.6,2.5,5.5,3.7c0.5,0.3,1,0.8,1,1.4c0,0.7-0.5,1.2-1,1.6c-1.8,1.5-3.7,3-5.5,4.6
				c0,3.7,0,7.5,0,11.2c0,1.8-0.5,3.7-1.9,4.9c-1.3,1.4-3.3,1.9-5.2,1.8c-4.4,0-8.8,0-13.2,0c0,2.8,0,5.6,0,8.4
				c-0.1,1.4-2,2.1-3,1.1c-0.8-0.6-0.6-1.8-0.6-2.7c0-2.3,0.1-4.5-0.1-6.8c-3.7,0-7.4,0-11.1,0c0,2.7,0,5.5,0,8.2c0,1-1,1.9-2,1.8
				c-0.8-0.1-1.5-0.8-1.6-1.6c-0.1-2.8,0.1-5.6-0.1-8.4c-5.3,0-10.6,0-16,0c-1.9,0-4-0.6-5.3-2.2c-1.2-1.5-1.4-3.6-1.4-5.5
				c0-2.6,0-5.2,0-7.8l-0.1-0.2c-2.4-1.3-4.7-2.9-7-4.5c-1.7-1.2-3.2-2.5-4.6-4c3.7-2.5,7.6-4.9,11.7-6.7c0-3.3,0-6.7,0-10
				C34.8,7.8,35.3,5.9,36.8,4.6z M39.4,7.4c-0.8,0.7-1,1.7-1,2.7c0,2.7,0,5.3,0,8c1.5-0.4,3-1,4.5-1.3c4.6-1.1,9.7-1.4,14.2,0.4
				c2.4,1,4.8,2.4,6.5,4.5c1.9,2.3,2.7,5.5,2,8.4c-0.7,2.7-2.7,4.7-4.9,6.3c-3,2-6.6,2.8-10.2,2.7c-4.2,0-8.2-1.1-12.1-2.5
				c0,2.3,0,4.5,0,6.8c0,0.9,0.1,1.8,0.7,2.5c0.6,0.8,1.6,1.1,2.6,1.1c15.3,0,30.7,0,46,0c1.2,0,2.5,0.1,3.6-0.5
				c1-0.6,1.3-1.8,1.3-2.9c0-11.1,0-22.3,0-33.4c0-1-0.2-2.1-0.9-2.8c-0.9-0.7-2.1-0.7-3.3-0.8c-15.3,0-30.5,0-45.8,0
				C41.5,6.7,40.2,6.7,39.4,7.4z M38.3,22.1c-3.2,1.3-6.4,2.8-9.3,4.8c2.1,1.6,4.4,3,6.6,4.4c3.9,2.1,8.2,3.6,12.7,4.1
				c3.5,0.3,7.2,0,10.2-1.9c1.7-1.1,3.3-2.7,3.6-4.8c0.3-1.9-0.5-3.8-1.8-5.1c-2.2-2.3-5.3-3.5-8.3-3.8
				C47.3,19.2,42.6,20.3,38.3,22.1z"/>
		</g>
		<path fill="#FFFFFF" d="M78.4,13.3c1.3-0.4,2.8-0.1,3.6,1c1.1,1.3,0.9,3.5-0.5,4.5c-1.3,1.2-3.6,0.9-4.6-0.6
			C75.7,16.7,76.4,13.9,78.4,13.3z"/>
	</g>
	<path fill="#FFFFFF" d="M0,61.5"/>
</g>
</svg>
